# Generated by gen_mesh.py
# Vertices: 55, Faces: 60
mtllib block.mtl
usemtl block_material
v -0.015000 -0.010000 -0.009000
v 0.015000 -0.010000 -0.009000
v 0.015000 0.010000 -0.009000
v -0.015000 0.010000 -0.009000
v -0.015000 -0.010000 0.002700
v 0.015000 -0.010000 0.002700
v 0.015000 0.010000 0.002700
v -0.015000 0.010000 0.002700
v -0.015000 -0.010000 0.002700
v -0.006000 -0.010000 0.002700
v -0.006000 0.001000 0.002700
v -0.015000 -0.010000 0.002700
v -0.006000 -0.010000 0.002700
v -0.006000 0.010000 0.002700
v -0.015000 0.010000 0.002700
v -0.015000 -0.010000 0.009000
v -0.006000 -0.010000 0.009000
v -0.006000 0.010000 0.009000
v -0.015000 0.010000 0.009000
v 0.006000 -0.010000 0.002700
v 0.015000 -0.010000 0.002700
v 0.015000 0.010000 0.002700
v 0.006000 0.010000 0.002700
v 0.006000 -0.010000 0.009000
v 0.015000 -0.010000 0.009000
v 0.015000 0.010000 0.009000
v 0.006000 0.010000 0.009000
v -0.006000 -0.010000 0.002700
v 0.006000 -0.010000 0.002700
v 0.006000 -0.005000 0.002700
v -0.006000 -0.005000 0.002700
v -0.006000 -0.010000 0.009000
v 0.006000 -0.010000 0.009000
v 0.006000 -0.005000 0.009000
v -0.006000 -0.005000 0.009000
v -0.006000 0.005000 0.002700
v 0.006000 0.005000 0.002700
v 0.006000 0.010000 0.002700
v -0.006000 0.010000 0.002700
v -0.006000 0.005000 0.009000
v 0.006000 0.005000 0.009000
v 0.006000 0.010000 0.009000
v -0.006000 0.010000 0.009000
v -0.006000 -0.005000 0.002700
v 0.006000 -0.005000 0.002700
v -0.006000 -0.005000 0.009000
v 0.006000 -0.005000 0.009000
v -0.006000 0.005000 0.002700
v 0.006000 0.005000 0.002700
v -0.006000 0.005000 0.009000
v 0.006000 0.005000 0.009000
v -0.006000 -0.005000 0.002700
v 0.006000 -0.005000 0.002700
v 0.006000 0.005000 0.002700
v -0.006000 0.005000 0.002700
vn 0.000000 0.000000 -1.000000
vn 0.000000 0.000000 -1.000000
vn 0.000000 -1.000000 0.000000
vn 0.000000 -1.000000 0.000000
vn 1.000000 0.000000 0.000000
vn 1.000000 0.000000 0.000000
vn 0.000000 1.000000 0.000000
vn 0.000000 1.000000 -0.000000
vn -1.000000 0.000000 0.000000
vn -1.000000 0.000000 0.000000
vn 0.000000 0.000000 -1.000000
vn 0.000000 0.000000 -1.000000
vn 0.000000 -1.000000 0.000000
vn 0.000000 -1.000000 0.000000
vn 1.000000 0.000000 0.000000
vn 1.000000 0.000000 0.000000
vn 0.000000 1.000000 0.000000
vn 0.000000 1.000000 -0.000000
vn -1.000000 0.000000 0.000000
vn -1.000000 0.000000 0.000000
vn 0.000000 0.000000 1.000000
vn 0.000000 0.000000 1.000000
vn 0.000000 0.000000 -1.000000
vn 0.000000 0.000000 -1.000000
vn 0.000000 -1.000000 0.000000
vn 0.000000 -1.000000 0.000000
vn 1.000000 0.000000 0.000000
vn 1.000000 0.000000 0.000000
vn 0.000000 1.000000 0.000000
vn 0.000000 1.000000 -0.000000
vn -1.000000 0.000000 0.000000
vn -1.000000 0.000000 0.000000
vn 0.000000 0.000000 1.000000
vn 0.000000 0.000000 1.000000
vn 0.000000 0.000000 -1.000000
vn 0.000000 0.000000 -1.000000
vn 0.000000 -1.000000 0.000000
vn 0.000000 -1.000000 0.000000
vn 1.000000 0.000000 0.000000
vn 1.000000 0.000000 0.000000
vn -1.000000 0.000000 0.000000
vn -1.000000 0.000000 0.000000
vn 0.000000 0.000000 1.000000
vn 0.000000 0.000000 1.000000
vn 0.000000 0.000000 -1.000000
vn 0.000000 0.000000 -1.000000
vn 0.000000 1.000000 0.000000
vn 0.000000 1.000000 -0.000000
vn -1.000000 0.000000 0.000000
vn -1.000000 0.000000 0.000000
vn 0.000000 -1.000000 0.000000
vn 0.000000 -1.000000 0.000000
vn 0.000000 0.000000 1.000000
vn 0.000000 0.000000 1.000000
vn 0.000000 1.000000 0.000000
vn 0.000000 1.000000 -0.000000
vn 0.000000 -1.000000 0.000000
vn 0.000000 -1.000000 0.000000
vn 0.000000 0.000000 1.000000
vn 0.000000 0.000000 1.000000
f 1//1 4//1 3//1
f 1//2 3//2 2//2
f 1//3 2//3 6//3
f 1//4 6//4 5//4
f 2//5 3//5 7//5
f 2//6 7//6 6//6
f 3//7 4//7 8//7
f 3//8 8//8 7//8
f 4//9 1//9 5//9
f 4//10 5//10 8//10
f 12//11 15//11 14//11
f 12//12 14//12 13//12
f 12//13 13//13 17//13
f 12//14 17//14 16//14
f 13//15 14//15 18//15
f 13//16 18//16 17//16
f 14//17 15//17 19//17
f 14//18 19//18 18//18
f 15//19 12//19 16//19
f 15//20 16//20 19//20
f 16//21 17//21 18//21
f 16//22 18//22 19//22
f 20//23 23//23 22//23
f 20//24 22//24 21//24
f 20//25 21//25 25//25
f 20//26 25//26 24//26
f 21//27 22//27 26//27
f 21//28 26//28 25//28
f 22//29 23//29 27//29
f 22//30 27//30 26//30
f 23//31 20//31 24//31
f 23//32 24//32 27//32
f 24//33 25//33 26//33
f 24//34 26//34 27//34
f 28//35 31//35 30//35
f 28//36 30//36 29//36
f 28//37 29//37 33//37
f 28//38 33//38 32//38
f 29//39 30//39 34//39
f 29//40 34//40 33//40
f 31//41 28//41 32//41
f 31//42 32//42 35//42
f 32//43 33//43 34//43
f 32//44 34//44 35//44
f 36//45 39//45 38//45
f 36//46 38//46 37//46
f 38//47 39//47 43//47
f 38//48 43//48 42//48
f 39//49 36//49 40//49
f 39//50 40//50 43//50
f 36//51 37//51 41//51
f 36//52 41//52 40//52
f 40//53 41//53 42//53
f 40//54 42//54 43//54
f 45//55 44//55 46//55
f 45//56 46//56 47//56
f 48//57 49//57 51//57
f 48//58 51//58 50//58
f 52//59 53//59 54//59
f 52//60 54//60 55//60
