# Generated by gen_mesh.py
# Vertices: 135, Faces: 204
mtllib bolt.mtl
usemtl bolt_material
v 0.008000 0.000000 -0.008000
v 0.008000 0.000000 -0.038000
v 0.007956 0.000836 -0.008000
v 0.007956 0.000836 -0.038000
v 0.007825 0.001663 -0.008000
v 0.007825 0.001663 -0.038000
v 0.007608 0.002472 -0.008000
v 0.007608 0.002472 -0.038000
v 0.007308 0.003254 -0.008000
v 0.007308 0.003254 -0.038000
v 0.006928 0.004000 -0.008000
v 0.006928 0.004000 -0.038000
v 0.006472 0.004702 -0.008000
v 0.006472 0.004702 -0.038000
v 0.005945 0.005353 -0.008000
v 0.005945 0.005353 -0.038000
v 0.005353 0.005945 -0.008000
v 0.005353 0.005945 -0.038000
v 0.004702 0.006472 -0.008000
v 0.004702 0.006472 -0.038000
v 0.004000 0.006928 -0.008000
v 0.004000 0.006928 -0.038000
v 0.003254 0.007308 -0.008000
v 0.003254 0.007308 -0.038000
v 0.002472 0.007608 -0.008000
v 0.002472 0.007608 -0.038000
v 0.001663 0.007825 -0.008000
v 0.001663 0.007825 -0.038000
v 0.000836 0.007956 -0.008000
v 0.000836 0.007956 -0.038000
v 0.000000 0.008000 -0.008000
v 0.000000 0.008000 -0.038000
v -0.000836 0.007956 -0.008000
v -0.000836 0.007956 -0.038000
v -0.001663 0.007825 -0.008000
v -0.001663 0.007825 -0.038000
v -0.002472 0.007608 -0.008000
v -0.002472 0.007608 -0.038000
v -0.003254 0.007308 -0.008000
v -0.003254 0.007308 -0.038000
v -0.004000 0.006928 -0.008000
v -0.004000 0.006928 -0.038000
v -0.004702 0.006472 -0.008000
v -0.004702 0.006472 -0.038000
v -0.005353 0.005945 -0.008000
v -0.005353 0.005945 -0.038000
v -0.005945 0.005353 -0.008000
v -0.005945 0.005353 -0.038000
v -0.006472 0.004702 -0.008000
v -0.006472 0.004702 -0.038000
v -0.006928 0.004000 -0.008000
v -0.006928 0.004000 -0.038000
v -0.007308 0.003254 -0.008000
v -0.007308 0.003254 -0.038000
v -0.007608 0.002472 -0.008000
v -0.007608 0.002472 -0.038000
v -0.007825 0.001663 -0.008000
v -0.007825 0.001663 -0.038000
v -0.007956 0.000836 -0.008000
v -0.007956 0.000836 -0.038000
v -0.008000 0.000000 -0.008000
v -0.008000 0.000000 -0.038000
v -0.007956 -0.000836 -0.008000
v -0.007956 -0.000836 -0.038000
v -0.007825 -0.001663 -0.008000
v -0.007825 -0.001663 -0.038000
v -0.007608 -0.002472 -0.008000
v -0.007608 -0.002472 -0.038000
v -0.007308 -0.003254 -0.008000
v -0.007308 -0.003254 -0.038000
v -0.006928 -0.004000 -0.008000
v -0.006928 -0.004000 -0.038000
v -0.006472 -0.004702 -0.008000
v -0.006472 -0.004702 -0.038000
v -0.005945 -0.005353 -0.008000
v -0.005945 -0.005353 -0.038000
v -0.005353 -0.005945 -0.008000
v -0.005353 -0.005945 -0.038000
v -0.004702 -0.006472 -0.008000
v -0.004702 -0.006472 -0.038000
v -0.004000 -0.006928 -0.008000
v -0.004000 -0.006928 -0.038000
v -0.003254 -0.007308 -0.008000
v -0.003254 -0.007308 -0.038000
v -0.002472 -0.007608 -0.008000
v -0.002472 -0.007608 -0.038000
v -0.001663 -0.007825 -0.008000
v -0.001663 -0.007825 -0.038000
v -0.000836 -0.007956 -0.008000
v -0.000836 -0.007956 -0.038000
v -0.000000 -0.008000 -0.008000
v -0.000000 -0.008000 -0.038000
v 0.000836 -0.007956 -0.008000
v 0.000836 -0.007956 -0.038000
v 0.001663 -0.007825 -0.008000
v 0.001663 -0.007825 -0.038000
v 0.002472 -0.007608 -0.008000
v 0.002472 -0.007608 -0.038000
v 0.003254 -0.007308 -0.008000
v 0.003254 -0.007308 -0.038000
v 0.004000 -0.006928 -0.008000
v 0.004000 -0.006928 -0.038000
v 0.004702 -0.006472 -0.008000
v 0.004702 -0.006472 -0.038000
v 0.005353 -0.005945 -0.008000
v 0.005353 -0.005945 -0.038000
v 0.005945 -0.005353 -0.008000
v 0.005945 -0.005353 -0.038000
v 0.006472 -0.004702 -0.008000
v 0.006472 -0.004702 -0.038000
v 0.006928 -0.004000 -0.008000
v 0.006928 -0.004000 -0.038000
v 0.007308 -0.003254 -0.008000
v 0.007308 -0.003254 -0.038000
v 0.007608 -0.002472 -0.008000
v 0.007608 -0.002472 -0.038000
v 0.007825 -0.001663 -0.008000
v 0.007825 -0.001663 -0.038000
v 0.007956 -0.000836 -0.008000
v 0.007956 -0.000836 -0.038000
v 0.000000 0.000000 -0.038000
v 0.010392 0.006000 0.000000
v 0.010392 0.006000 -0.008000
v 0.000000 0.012000 0.000000
v 0.000000 0.012000 -0.008000
v -0.010392 0.006000 0.000000
v -0.010392 0.006000 -0.008000
v -0.010392 -0.006000 0.000000
v -0.010392 -0.006000 -0.008000
v -0.000000 -0.012000 0.000000
v -0.000000 -0.012000 -0.008000
v 0.010392 -0.006000 0.000000
v 0.010392 -0.006000 -0.008000
v 0.000000 0.000000 0.000000
v 0.000000 0.000000 -0.008000
vn 0.998630 0.052336 0.000000
vn 0.998630 0.052336 0.000000
vn 0.000000 0.000000 1.000000
vn 0.987688 0.156434 0.000000
vn 0.987688 0.156434 0.000000
vn 0.000000 0.000000 1.000000
vn 0.965926 0.258819 0.000000
vn 0.965926 0.258819 0.000000
vn 0.000000 0.000000 1.000000
vn 0.933580 0.358368 0.000000
vn 0.933580 0.358368 0.000000
vn 0.000000 0.000000 1.000000
vn 0.891007 0.453990 0.000000
vn 0.891007 0.453990 0.000000
vn 0.000000 0.000000 1.000000
vn 0.838671 0.544639 0.000000
vn 0.838671 0.544639 0.000000
vn 0.000000 0.000000 1.000000
vn 0.777146 0.629320 0.000000
vn 0.777146 0.629320 0.000000
vn 0.000000 0.000000 1.000000
vn 0.707107 0.707107 0.000000
vn 0.707107 0.707107 0.000000
vn 0.000000 0.000000 1.000000
vn 0.629320 0.777146 0.000000
vn 0.629320 0.777146 0.000000
vn 0.000000 0.000000 1.000000
vn 0.544639 0.838671 0.000000
vn 0.544639 0.838671 0.000000
vn 0.000000 0.000000 1.000000
vn 0.453990 0.891007 0.000000
vn 0.453990 0.891007 0.000000
vn 0.000000 0.000000 1.000000
vn 0.358368 0.933580 0.000000
vn 0.358368 0.933580 0.000000
vn 0.000000 0.000000 1.000000
vn 0.258819 0.965926 0.000000
vn 0.258819 0.965926 0.000000
vn 0.000000 0.000000 1.000000
vn 0.156434 0.987688 0.000000
vn 0.156434 0.987688 0.000000
vn 0.000000 0.000000 1.000000
vn 0.052336 0.998630 0.000000
vn 0.052336 0.998630 0.000000
vn 0.000000 0.000000 1.000000
vn -0.052336 0.998630 0.000000
vn -0.052336 0.998630 0.000000
vn 0.000000 0.000000 1.000000
vn -0.156434 0.987688 0.000000
vn -0.156434 0.987688 0.000000
vn 0.000000 0.000000 1.000000
vn -0.258819 0.965926 0.000000
vn -0.258819 0.965926 0.000000
vn 0.000000 0.000000 1.000000
vn -0.358368 0.933580 0.000000
vn -0.358368 0.933580 0.000000
vn 0.000000 0.000000 1.000000
vn -0.453990 0.891007 0.000000
vn -0.453990 0.891007 0.000000
vn 0.000000 0.000000 1.000000
vn -0.544639 0.838671 0.000000
vn -0.544639 0.838671 0.000000
vn 0.000000 0.000000 1.000000
vn -0.629320 0.777146 0.000000
vn -0.629320 0.777146 0.000000
vn 0.000000 0.000000 1.000000
vn -0.707107 0.707107 0.000000
vn -0.707107 0.707107 0.000000
vn 0.000000 0.000000 1.000000
vn -0.777146 0.629320 0.000000
vn -0.777146 0.629320 0.000000
vn 0.000000 0.000000 1.000000
vn -0.838671 0.544639 0.000000
vn -0.838671 0.544639 0.000000
vn 0.000000 0.000000 1.000000
vn -0.891007 0.453990 0.000000
vn -0.891007 0.453990 0.000000
vn 0.000000 0.000000 1.000000
vn -0.933580 0.358368 0.000000
vn -0.933580 0.358368 0.000000
vn 0.000000 0.000000 1.000000
vn -0.965926 0.258819 0.000000
vn -0.965926 0.258819 0.000000
vn 0.000000 0.000000 1.000000
vn -0.987688 0.156434 0.000000
vn -0.987688 0.156434 0.000000
vn 0.000000 0.000000 1.000000
vn -0.998630 0.052336 0.000000
vn -0.998630 0.052336 0.000000
vn 0.000000 0.000000 1.000000
vn -0.998630 -0.052336 -0.000000
vn -0.998630 -0.052336 -0.000000
vn 0.000000 0.000000 1.000000
vn -0.987688 -0.156434 -0.000000
vn -0.987688 -0.156434 -0.000000
vn -0.000000 0.000000 1.000000
vn -0.965926 -0.258819 -0.000000
vn -0.965926 -0.258819 -0.000000
vn -0.000000 0.000000 1.000000
vn -0.933580 -0.358368 -0.000000
vn -0.933580 -0.358368 -0.000000
vn -0.000000 0.000000 1.000000
vn -0.891007 -0.453990 -0.000000
vn -0.891007 -0.453990 -0.000000
vn -0.000000 0.000000 1.000000
vn -0.838671 -0.544639 -0.000000
vn -0.838671 -0.544639 -0.000000
vn -0.000000 0.000000 1.000000
vn -0.777146 -0.629320 -0.000000
vn -0.777146 -0.629320 -0.000000
vn -0.000000 0.000000 1.000000
vn -0.707107 -0.707107 -0.000000
vn -0.707107 -0.707107 -0.000000
vn -0.000000 0.000000 1.000000
vn -0.629320 -0.777146 -0.000000
vn -0.629320 -0.777146 -0.000000
vn -0.000000 0.000000 1.000000
vn -0.544639 -0.838671 -0.000000
vn -0.544639 -0.838671 -0.000000
vn -0.000000 0.000000 1.000000
vn -0.453990 -0.891007 -0.000000
vn -0.453990 -0.891007 -0.000000
vn -0.000000 0.000000 1.000000
vn -0.358368 -0.933580 -0.000000
vn -0.358368 -0.933580 -0.000000
vn -0.000000 0.000000 1.000000
vn -0.258819 -0.965926 -0.000000
vn -0.258819 -0.965926 -0.000000
vn -0.000000 0.000000 1.000000
vn -0.156434 -0.987688 -0.000000
vn -0.156434 -0.987688 -0.000000
vn -0.000000 0.000000 1.000000
vn -0.052336 -0.998630 -0.000000
vn -0.052336 -0.998630 -0.000000
vn -0.000000 0.000000 1.000000
vn 0.052336 -0.998630 0.000000
vn 0.052336 -0.998630 0.000000
vn 0.000000 0.000000 1.000000
vn 0.156434 -0.987688 0.000000
vn 0.156434 -0.987688 0.000000
vn 0.000000 -0.000000 1.000000
vn 0.258819 -0.965926 0.000000
vn 0.258819 -0.965926 0.000000
vn 0.000000 -0.000000 1.000000
vn 0.358368 -0.933580 0.000000
vn 0.358368 -0.933580 0.000000
vn 0.000000 -0.000000 1.000000
vn 0.453990 -0.891007 0.000000
vn 0.453990 -0.891007 0.000000
vn 0.000000 -0.000000 1.000000
vn 0.544639 -0.838671 0.000000
vn 0.544639 -0.838671 0.000000
vn 0.000000 -0.000000 1.000000
vn 0.629320 -0.777146 0.000000
vn 0.629320 -0.777146 0.000000
vn 0.000000 -0.000000 1.000000
vn 0.707107 -0.707107 0.000000
vn 0.707107 -0.707107 0.000000
vn 0.000000 -0.000000 1.000000
vn 0.777146 -0.629320 0.000000
vn 0.777146 -0.629320 0.000000
vn 0.000000 -0.000000 1.000000
vn 0.838671 -0.544639 0.000000
vn 0.838671 -0.544639 0.000000
vn 0.000000 -0.000000 1.000000
vn 0.891007 -0.453990 0.000000
vn 0.891007 -0.453990 0.000000
vn 0.000000 -0.000000 1.000000
vn 0.933580 -0.358368 0.000000
vn 0.933580 -0.358368 0.000000
vn 0.000000 -0.000000 1.000000
vn 0.965926 -0.258819 0.000000
vn 0.965926 -0.258819 0.000000
vn 0.000000 -0.000000 1.000000
vn 0.987688 -0.156434 0.000000
vn 0.987688 -0.156434 0.000000
vn 0.000000 -0.000000 1.000000
vn 0.998630 -0.052336 0.000000
vn 0.998630 -0.052336 0.000000
vn 0.000000 -0.000000 1.000000
vn 0.500000 0.866025 0.000000
vn 0.500000 0.866025 0.000000
vn 0.000000 0.000000 1.000000
vn -0.500000 0.866025 0.000000
vn -0.500000 0.866025 0.000000
vn 0.000000 0.000000 1.000000
vn -1.000000 0.000000 0.000000
vn -1.000000 0.000000 0.000000
vn 0.000000 0.000000 1.000000
vn -0.500000 -0.866025 -0.000000
vn -0.500000 -0.866025 -0.000000
vn -0.000000 0.000000 1.000000
vn 0.500000 -0.866025 0.000000
vn 0.500000 -0.866025 0.000000
vn 0.000000 0.000000 1.000000
vn 1.000000 -0.000000 0.000000
vn 1.000000 -0.000000 0.000000
vn 0.000000 -0.000000 1.000000
vn 0.000000 0.000000 1.000000
vn 0.000000 0.000000 1.000000
vn 0.000000 0.000000 1.000000
vn -0.000000 0.000000 1.000000
vn 0.000000 0.000000 1.000000
vn 0.000000 -0.000000 1.000000
f 1//1 2//1 3//1
f 3//2 2//2 4//2
f 2//3 4//3 121//3
f 3//4 4//4 5//4
f 5//5 4//5 6//5
f 4//6 6//6 121//6
f 5//7 6//7 7//7
f 7//8 6//8 8//8
f 6//9 8//9 121//9
f 7//10 8//10 9//10
f 9//11 8//11 10//11
f 8//12 10//12 121//12
f 9//13 10//13 11//13
f 11//14 10//14 12//14
f 10//15 12//15 121//15
f 11//16 12//16 13//16
f 13//17 12//17 14//17
f 12//18 14//18 121//18
f 13//19 14//19 15//19
f 15//20 14//20 16//20
f 14//21 16//21 121//21
f 15//22 16//22 17//22
f 17//23 16//23 18//23
f 16//24 18//24 121//24
f 17//25 18//25 19//25
f 19//26 18//26 20//26
f 18//27 20//27 121//27
f 19//28 20//28 21//28
f 21//29 20//29 22//29
f 20//30 22//30 121//30
f 21//31 22//31 23//31
f 23//32 22//32 24//32
f 22//33 24//33 121//33
f 23//34 24//34 25//34
f 25//35 24//35 26//35
f 24//36 26//36 121//36
f 25//37 26//37 27//37
f 27//38 26//38 28//38
f 26//39 28//39 121//39
f 27//40 28//40 29//40
f 29//41 28//41 30//41
f 28//42 30//42 121//42
f 29//43 30//43 31//43
f 31//44 30//44 32//44
f 30//45 32//45 121//45
f 31//46 32//46 33//46
f 33//47 32//47 34//47
f 32//48 34//48 121//48
f 33//49 34//49 35//49
f 35//50 34//50 36//50
f 34//51 36//51 121//51
f 35//52 36//52 37//52
f 37//53 36//53 38//53
f 36//54 38//54 121//54
f 37//55 38//55 39//55
f 39//56 38//56 40//56
f 38//57 40//57 121//57
f 39//58 40//58 41//58
f 41//59 40//59 42//59
f 40//60 42//60 121//60
f 41//61 42//61 43//61
f 43//62 42//62 44//62
f 42//63 44//63 121//63
f 43//64 44//64 45//64
f 45//65 44//65 46//65
f 44//66 46//66 121//66
f 45//67 46//67 47//67
f 47//68 46//68 48//68
f 46//69 48//69 121//69
f 47//70 48//70 49//70
f 49//71 48//71 50//71
f 48//72 50//72 121//72
f 49//73 50//73 51//73
f 51//74 50//74 52//74
f 50//75 52//75 121//75
f 51//76 52//76 53//76
f 53//77 52//77 54//77
f 52//78 54//78 121//78
f 53//79 54//79 55//79
f 55//80 54//80 56//80
f 54//81 56//81 121//81
f 55//82 56//82 57//82
f 57//83 56//83 58//83
f 56//84 58//84 121//84
f 57//85 58//85 59//85
f 59//86 58//86 60//86
f 58//87 60//87 121//87
f 59//88 60//88 61//88
f 61//89 60//89 62//89
f 60//90 62//90 121//90
f 61//91 62//91 63//91
f 63//92 62//92 64//92
f 62//93 64//93 121//93
f 63//94 64//94 65//94
f 65//95 64//95 66//95
f 64//96 66//96 121//96
f 65//97 66//97 67//97
f 67//98 66//98 68//98
f 66//99 68//99 121//99
f 67//100 68//100 69//100
f 69//101 68//101 70//101
f 68//102 70//102 121//102
f 69//103 70//103 71//103
f 71//104 70//104 72//104
f 70//105 72//105 121//105
f 71//106 72//106 73//106
f 73//107 72//107 74//107
f 72//108 74//108 121//108
f 73//109 74//109 75//109
f 75//110 74//110 76//110
f 74//111 76//111 121//111
f 75//112 76//112 77//112
f 77//113 76//113 78//113
f 76//114 78//114 121//114
f 77//115 78//115 79//115
f 79//116 78//116 80//116
f 78//117 80//117 121//117
f 79//118 80//118 81//118
f 81//119 80//119 82//119
f 80//120 82//120 121//120
f 81//121 82//121 83//121
f 83//122 82//122 84//122
f 82//123 84//123 121//123
f 83//124 84//124 85//124
f 85//125 84//125 86//125
f 84//126 86//126 121//126
f 85//127 86//127 87//127
f 87//128 86//128 88//128
f 86//129 88//129 121//129
f 87//130 88//130 89//130
f 89//131 88//131 90//131
f 88//132 90//132 121//132
f 89//133 90//133 91//133
f 91//134 90//134 92//134
f 90//135 92//135 121//135
f 91//136 92//136 93//136
f 93//137 92//137 94//137
f 92//138 94//138 121//138
f 93//139 94//139 95//139
f 95//140 94//140 96//140
f 94//141 96//141 121//141
f 95//142 96//142 97//142
f 97//143 96//143 98//143
f 96//144 98//144 121//144
f 97//145 98//145 99//145
f 99//146 98//146 100//146
f 98//147 100//147 121//147
f 99//148 100//148 101//148
f 101//149 100//149 102//149
f 100//150 102//150 121//150
f 101//151 102//151 103//151
f 103//152 102//152 104//152
f 102//153 104//153 121//153
f 103//154 104//154 105//154
f 105//155 104//155 106//155
f 104//156 106//156 121//156
f 105//157 106//157 107//157
f 107//158 106//158 108//158
f 106//159 108//159 121//159
f 107//160 108//160 109//160
f 109//161 108//161 110//161
f 108//162 110//162 121//162
f 109//163 110//163 111//163
f 111//164 110//164 112//164
f 110//165 112//165 121//165
f 111//166 112//166 113//166
f 113//167 112//167 114//167
f 112//168 114//168 121//168
f 113//169 114//169 115//169
f 115//170 114//170 116//170
f 114//171 116//171 121//171
f 115//172 116//172 117//172
f 117//173 116//173 118//173
f 116//174 118//174 121//174
f 117//175 118//175 119//175
f 119//176 118//176 120//176
f 118//177 120//177 121//177
f 119//178 120//178 1//178
f 1//179 120//179 2//179
f 120//180 2//180 121//180
f 122//181 123//181 124//181
f 124//182 123//182 125//182
f 122//183 124//183 134//183
f 124//184 125//184 126//184
f 126//185 125//185 127//185
f 124//186 126//186 134//186
f 126//187 127//187 128//187
f 128//188 127//188 129//188
f 126//189 128//189 134//189
f 128//190 129//190 130//190
f 130//191 129//191 131//191
f 128//192 130//192 134//192
f 130//193 131//193 132//193
f 132//194 131//194 133//194
f 130//195 132//195 134//195
f 132//196 133//196 122//196
f 122//197 133//197 123//197
f 132//198 122//198 134//198
f 123//199 125//199 135//199
f 125//200 127//200 135//200
f 127//201 129//201 135//201
f 129//202 131//202 135//202
f 131//203 133//203 135//203
f 133//204 123//204 135//204
