# Generated by gen_mesh.py
# Vertices: 480, Faces: 960
mtllib washer.mtl
usemtl washer_material
v 0.007000 0.000000 0.004000
v 0.007000 0.000000 -0.004000
v 0.020000 0.000000 0.004000
v 0.020000 0.000000 -0.004000
v 0.006990 0.000366 0.004000
v 0.006990 0.000366 -0.004000
v 0.019973 0.001047 0.004000
v 0.019973 0.001047 -0.004000
v 0.006962 0.000732 0.004000
v 0.006962 0.000732 -0.004000
v 0.019890 0.002091 0.004000
v 0.019890 0.002091 -0.004000
v 0.006914 0.001095 0.004000
v 0.006914 0.001095 -0.004000
v 0.019754 0.003129 0.004000
v 0.019754 0.003129 -0.004000
v 0.006847 0.001455 0.004000
v 0.006847 0.001455 -0.004000
v 0.019563 0.004158 0.004000
v 0.019563 0.004158 -0.004000
v 0.006761 0.001812 0.004000
v 0.006761 0.001812 -0.004000
v 0.019319 0.005176 0.004000
v 0.019319 0.005176 -0.004000
v 0.006657 0.002163 0.004000
v 0.006657 0.002163 -0.004000
v 0.019021 0.006180 0.004000
v 0.019021 0.006180 -0.004000
v 0.006535 0.002509 0.004000
v 0.006535 0.002509 -0.004000
v 0.018672 0.007167 0.004000
v 0.018672 0.007167 -0.004000
v 0.006395 0.002847 0.004000
v 0.006395 0.002847 -0.004000
v 0.018271 0.008135 0.004000
v 0.018271 0.008135 -0.004000
v 0.006237 0.003178 0.004000
v 0.006237 0.003178 -0.004000
v 0.017820 0.009080 0.004000
v 0.017820 0.009080 -0.004000
v 0.006062 0.003500 0.004000
v 0.006062 0.003500 -0.004000
v 0.017321 0.010000 0.004000
v 0.017321 0.010000 -0.004000
v 0.005871 0.003812 0.004000
v 0.005871 0.003812 -0.004000
v 0.016773 0.010893 0.004000
v 0.016773 0.010893 -0.004000
v 0.005663 0.004114 0.004000
v 0.005663 0.004114 -0.004000
v 0.016180 0.011756 0.004000
v 0.016180 0.011756 -0.004000
v 0.005440 0.004405 0.004000
v 0.005440 0.004405 -0.004000
v 0.015543 0.012586 0.004000
v 0.015543 0.012586 -0.004000
v 0.005202 0.004684 0.004000
v 0.005202 0.004684 -0.004000
v 0.014863 0.013383 0.004000
v 0.014863 0.013383 -0.004000
v 0.004950 0.004950 0.004000
v 0.004950 0.004950 -0.004000
v 0.014142 0.014142 0.004000
v 0.014142 0.014142 -0.004000
v 0.004684 0.005202 0.004000
v 0.004684 0.005202 -0.004000
v 0.013383 0.014863 0.004000
v 0.013383 0.014863 -0.004000
v 0.004405 0.005440 0.004000
v 0.004405 0.005440 -0.004000
v 0.012586 0.015543 0.004000
v 0.012586 0.015543 -0.004000
v 0.004114 0.005663 0.004000
v 0.004114 0.005663 -0.004000
v 0.011756 0.016180 0.004000
v 0.011756 0.016180 -0.004000
v 0.003812 0.005871 0.004000
v 0.003812 0.005871 -0.004000
v 0.010893 0.016773 0.004000
v 0.010893 0.016773 -0.004000
v 0.003500 0.006062 0.004000
v 0.003500 0.006062 -0.004000
v 0.010000 0.017321 0.004000
v 0.010000 0.017321 -0.004000
v 0.003178 0.006237 0.004000
v 0.003178 0.006237 -0.004000
v 0.009080 0.017820 0.004000
v 0.009080 0.017820 -0.004000
v 0.002847 0.006395 0.004000
v 0.002847 0.006395 -0.004000
v 0.008135 0.018271 0.004000
v 0.008135 0.018271 -0.004000
v 0.002509 0.006535 0.004000
v 0.002509 0.006535 -0.004000
v 0.007167 0.018672 0.004000
v 0.007167 0.018672 -0.004000
v 0.002163 0.006657 0.004000
v 0.002163 0.006657 -0.004000
v 0.006180 0.019021 0.004000
v 0.006180 0.019021 -0.004000
v 0.001812 0.006761 0.004000
v 0.001812 0.006761 -0.004000
v 0.005176 0.019319 0.004000
v 0.005176 0.019319 -0.004000
v 0.001455 0.006847 0.004000
v 0.001455 0.006847 -0.004000
v 0.004158 0.019563 0.004000
v 0.004158 0.019563 -0.004000
v 0.001095 0.006914 0.004000
v 0.001095 0.006914 -0.004000
v 0.003129 0.019754 0.004000
v 0.003129 0.019754 -0.004000
v 0.000732 0.006962 0.004000
v 0.000732 0.006962 -0.004000
v 0.002091 0.019890 0.004000
v 0.002091 0.019890 -0.004000
v 0.000366 0.006990 0.004000
v 0.000366 0.006990 -0.004000
v 0.001047 0.019973 0.004000
v 0.001047 0.019973 -0.004000
v 0.000000 0.007000 0.004000
v 0.000000 0.007000 -0.004000
v 0.000000 0.020000 0.004000
v 0.000000 0.020000 -0.004000
v -0.000366 0.006990 0.004000
v -0.000366 0.006990 -0.004000
v -0.001047 0.019973 0.004000
v -0.001047 0.019973 -0.004000
v -0.000732 0.006962 0.004000
v -0.000732 0.006962 -0.004000
v -0.002091 0.019890 0.004000
v -0.002091 0.019890 -0.004000
v -0.001095 0.006914 0.004000
v -0.001095 0.006914 -0.004000
v -0.003129 0.019754 0.004000
v -0.003129 0.019754 -0.004000
v -0.001455 0.006847 0.004000
v -0.001455 0.006847 -0.004000
v -0.004158 0.019563 0.004000
v -0.004158 0.019563 -0.004000
v -0.001812 0.006761 0.004000
v -0.001812 0.006761 -0.004000
v -0.005176 0.019319 0.004000
v -0.005176 0.019319 -0.004000
v -0.002163 0.006657 0.004000
v -0.002163 0.006657 -0.004000
v -0.006180 0.019021 0.004000
v -0.006180 0.019021 -0.004000
v -0.002509 0.006535 0.004000
v -0.002509 0.006535 -0.004000
v -0.007167 0.018672 0.004000
v -0.007167 0.018672 -0.004000
v -0.002847 0.006395 0.004000
v -0.002847 0.006395 -0.004000
v -0.008135 0.018271 0.004000
v -0.008135 0.018271 -0.004000
v -0.003178 0.006237 0.004000
v -0.003178 0.006237 -0.004000
v -0.009080 0.017820 0.004000
v -0.009080 0.017820 -0.004000
v -0.003500 0.006062 0.004000
v -0.003500 0.006062 -0.004000
v -0.010000 0.017321 0.004000
v -0.010000 0.017321 -0.004000
v -0.003812 0.005871 0.004000
v -0.003812 0.005871 -0.004000
v -0.010893 0.016773 0.004000
v -0.010893 0.016773 -0.004000
v -0.004114 0.005663 0.004000
v -0.004114 0.005663 -0.004000
v -0.011756 0.016180 0.004000
v -0.011756 0.016180 -0.004000
v -0.004405 0.005440 0.004000
v -0.004405 0.005440 -0.004000
v -0.012586 0.015543 0.004000
v -0.012586 0.015543 -0.004000
v -0.004684 0.005202 0.004000
v -0.004684 0.005202 -0.004000
v -0.013383 0.014863 0.004000
v -0.013383 0.014863 -0.004000
v -0.004950 0.004950 0.004000
v -0.004950 0.004950 -0.004000
v -0.014142 0.014142 0.004000
v -0.014142 0.014142 -0.004000
v -0.005202 0.004684 0.004000
v -0.005202 0.004684 -0.004000
v -0.014863 0.013383 0.004000
v -0.014863 0.013383 -0.004000
v -0.005440 0.004405 0.004000
v -0.005440 0.004405 -0.004000
v -0.015543 0.012586 0.004000
v -0.015543 0.012586 -0.004000
v -0.005663 0.004114 0.004000
v -0.005663 0.004114 -0.004000
v -0.016180 0.011756 0.004000
v -0.016180 0.011756 -0.004000
v -0.005871 0.003812 0.004000
v -0.005871 0.003812 -0.004000
v -0.016773 0.010893 0.004000
v -0.016773 0.010893 -0.004000
v -0.006062 0.003500 0.004000
v -0.006062 0.003500 -0.004000
v -0.017321 0.010000 0.004000
v -0.017321 0.010000 -0.004000
v -0.006237 0.003178 0.004000
v -0.006237 0.003178 -0.004000
v -0.017820 0.009080 0.004000
v -0.017820 0.009080 -0.004000
v -0.006395 0.002847 0.004000
v -0.006395 0.002847 -0.004000
v -0.018271 0.008135 0.004000
v -0.018271 0.008135 -0.004000
v -0.006535 0.002509 0.004000
v -0.006535 0.002509 -0.004000
v -0.018672 0.007167 0.004000
v -0.018672 0.007167 -0.004000
v -0.006657 0.002163 0.004000
v -0.006657 0.002163 -0.004000
v -0.019021 0.006180 0.004000
v -0.019021 0.006180 -0.004000
v -0.006761 0.001812 0.004000
v -0.006761 0.001812 -0.004000
v -0.019319 0.005176 0.004000
v -0.019319 0.005176 -0.004000
v -0.006847 0.001455 0.004000
v -0.006847 0.001455 -0.004000
v -0.019563 0.004158 0.004000
v -0.019563 0.004158 -0.004000
v -0.006914 0.001095 0.004000
v -0.006914 0.001095 -0.004000
v -0.019754 0.003129 0.004000
v -0.019754 0.003129 -0.004000
v -0.006962 0.000732 0.004000
v -0.006962 0.000732 -0.004000
v -0.019890 0.002091 0.004000
v -0.019890 0.002091 -0.004000
v -0.006990 0.000366 0.004000
v -0.006990 0.000366 -0.004000
v -0.019973 0.001047 0.004000
v -0.019973 0.001047 -0.004000
v -0.007000 0.000000 0.004000
v -0.007000 0.000000 -0.004000
v -0.020000 0.000000 0.004000
v -0.020000 0.000000 -0.004000
v -0.006990 -0.000366 0.004000
v -0.006990 -0.000366 -0.004000
v -0.019973 -0.001047 0.004000
v -0.019973 -0.001047 -0.004000
v -0.006962 -0.000732 0.004000
v -0.006962 -0.000732 -0.004000
v -0.019890 -0.002091 0.004000
v -0.019890 -0.002091 -0.004000
v -0.006914 -0.001095 0.004000
v -0.006914 -0.001095 -0.004000
v -0.019754 -0.003129 0.004000
v -0.019754 -0.003129 -0.004000
v -0.006847 -0.001455 0.004000
v -0.006847 -0.001455 -0.004000
v -0.019563 -0.004158 0.004000
v -0.019563 -0.004158 -0.004000
v -0.006761 -0.001812 0.004000
v -0.006761 -0.001812 -0.004000
v -0.019319 -0.005176 0.004000
v -0.019319 -0.005176 -0.004000
v -0.006657 -0.002163 0.004000
v -0.006657 -0.002163 -0.004000
v -0.019021 -0.006180 0.004000
v -0.019021 -0.006180 -0.004000
v -0.006535 -0.002509 0.004000
v -0.006535 -0.002509 -0.004000
v -0.018672 -0.007167 0.004000
v -0.018672 -0.007167 -0.004000
v -0.006395 -0.002847 0.004000
v -0.006395 -0.002847 -0.004000
v -0.018271 -0.008135 0.004000
v -0.018271 -0.008135 -0.004000
v -0.006237 -0.003178 0.004000
v -0.006237 -0.003178 -0.004000
v -0.017820 -0.009080 0.004000
v -0.017820 -0.009080 -0.004000
v -0.006062 -0.003500 0.004000
v -0.006062 -0.003500 -0.004000
v -0.017321 -0.010000 0.004000
v -0.017321 -0.010000 -0.004000
v -0.005871 -0.003812 0.004000
v -0.005871 -0.003812 -0.004000
v -0.016773 -0.010893 0.004000
v -0.016773 -0.010893 -0.004000
v -0.005663 -0.004114 0.004000
v -0.005663 -0.004114 -0.004000
v -0.016180 -0.011756 0.004000
v -0.016180 -0.011756 -0.004000
v -0.005440 -0.004405 0.004000
v -0.005440 -0.004405 -0.004000
v -0.015543 -0.012586 0.004000
v -0.015543 -0.012586 -0.004000
v -0.005202 -0.004684 0.004000
v -0.005202 -0.004684 -0.004000
v -0.014863 -0.013383 0.004000
v -0.014863 -0.013383 -0.004000
v -0.004950 -0.004950 0.004000
v -0.004950 -0.004950 -0.004000
v -0.014142 -0.014142 0.004000
v -0.014142 -0.014142 -0.004000
v -0.004684 -0.005202 0.004000
v -0.004684 -0.005202 -0.004000
v -0.013383 -0.014863 0.004000
v -0.013383 -0.014863 -0.004000
v -0.004405 -0.005440 0.004000
v -0.004405 -0.005440 -0.004000
v -0.012586 -0.015543 0.004000
v -0.012586 -0.015543 -0.004000
v -0.004114 -0.005663 0.004000
v -0.004114 -0.005663 -0.004000
v -0.011756 -0.016180 0.004000
v -0.011756 -0.016180 -0.004000
v -0.003812 -0.005871 0.004000
v -0.003812 -0.005871 -0.004000
v -0.010893 -0.016773 0.004000
v -0.010893 -0.016773 -0.004000
v -0.003500 -0.006062 0.004000
v -0.003500 -0.006062 -0.004000
v -0.010000 -0.017321 0.004000
v -0.010000 -0.017321 -0.004000
v -0.003178 -0.006237 0.004000
v -0.003178 -0.006237 -0.004000
v -0.009080 -0.017820 0.004000
v -0.009080 -0.017820 -0.004000
v -0.002847 -0.006395 0.004000
v -0.002847 -0.006395 -0.004000
v -0.008135 -0.018271 0.004000
v -0.008135 -0.018271 -0.004000
v -0.002509 -0.006535 0.004000
v -0.002509 -0.006535 -0.004000
v -0.007167 -0.018672 0.004000
v -0.007167 -0.018672 -0.004000
v -0.002163 -0.006657 0.004000
v -0.002163 -0.006657 -0.004000
v -0.006180 -0.019021 0.004000
v -0.006180 -0.019021 -0.004000
v -0.001812 -0.006761 0.004000
v -0.001812 -0.006761 -0.004000
v -0.005176 -0.019319 0.004000
v -0.005176 -0.019319 -0.004000
v -0.001455 -0.006847 0.004000
v -0.001455 -0.006847 -0.004000
v -0.004158 -0.019563 0.004000
v -0.004158 -0.019563 -0.004000
v -0.001095 -0.006914 0.004000
v -0.001095 -0.006914 -0.004000
v -0.003129 -0.019754 0.004000
v -0.003129 -0.019754 -0.004000
v -0.000732 -0.006962 0.004000
v -0.000732 -0.006962 -0.004000
v -0.002091 -0.019890 0.004000
v -0.002091 -0.019890 -0.004000
v -0.000366 -0.006990 0.004000
v -0.000366 -0.006990 -0.004000
v -0.001047 -0.019973 0.004000
v -0.001047 -0.019973 -0.004000
v -0.000000 -0.007000 0.004000
v -0.000000 -0.007000 -0.004000
v -0.000000 -0.020000 0.004000
v -0.000000 -0.020000 -0.004000
v 0.000366 -0.006990 0.004000
v 0.000366 -0.006990 -0.004000
v 0.001047 -0.019973 0.004000
v 0.001047 -0.019973 -0.004000
v 0.000732 -0.006962 0.004000
v 0.000732 -0.006962 -0.004000
v 0.002091 -0.019890 0.004000
v 0.002091 -0.019890 -0.004000
v 0.001095 -0.006914 0.004000
v 0.001095 -0.006914 -0.004000
v 0.003129 -0.019754 0.004000
v 0.003129 -0.019754 -0.004000
v 0.001455 -0.006847 0.004000
v 0.001455 -0.006847 -0.004000
v 0.004158 -0.019563 0.004000
v 0.004158 -0.019563 -0.004000
v 0.001812 -0.006761 0.004000
v 0.001812 -0.006761 -0.004000
v 0.005176 -0.019319 0.004000
v 0.005176 -0.019319 -0.004000
v 0.002163 -0.006657 0.004000
v 0.002163 -0.006657 -0.004000
v 0.006180 -0.019021 0.004000
v 0.006180 -0.019021 -0.004000
v 0.002509 -0.006535 0.004000
v 0.002509 -0.006535 -0.004000
v 0.007167 -0.018672 0.004000
v 0.007167 -0.018672 -0.004000
v 0.002847 -0.006395 0.004000
v 0.002847 -0.006395 -0.004000
v 0.008135 -0.018271 0.004000
v 0.008135 -0.018271 -0.004000
v 0.003178 -0.006237 0.004000
v 0.003178 -0.006237 -0.004000
v 0.009080 -0.017820 0.004000
v 0.009080 -0.017820 -0.004000
v 0.003500 -0.006062 0.004000
v 0.003500 -0.006062 -0.004000
v 0.010000 -0.017321 0.004000
v 0.010000 -0.017321 -0.004000
v 0.003812 -0.005871 0.004000
v 0.003812 -0.005871 -0.004000
v 0.010893 -0.016773 0.004000
v 0.010893 -0.016773 -0.004000
v 0.004114 -0.005663 0.004000
v 0.004114 -0.005663 -0.004000
v 0.011756 -0.016180 0.004000
v 0.011756 -0.016180 -0.004000
v 0.004405 -0.005440 0.004000
v 0.004405 -0.005440 -0.004000
v 0.012586 -0.015543 0.004000
v 0.012586 -0.015543 -0.004000
v 0.004684 -0.005202 0.004000
v 0.004684 -0.005202 -0.004000
v 0.013383 -0.014863 0.004000
v 0.013383 -0.014863 -0.004000
v 0.004950 -0.004950 0.004000
v 0.004950 -0.004950 -0.004000
v 0.014142 -0.014142 0.004000
v 0.014142 -0.014142 -0.004000
v 0.005202 -0.004684 0.004000
v 0.005202 -0.004684 -0.004000
v 0.014863 -0.013383 0.004000
v 0.014863 -0.013383 -0.004000
v 0.005440 -0.004405 0.004000
v 0.005440 -0.004405 -0.004000
v 0.015543 -0.012586 0.004000
v 0.015543 -0.012586 -0.004000
v 0.005663 -0.004114 0.004000
v 0.005663 -0.004114 -0.004000
v 0.016180 -0.011756 0.004000
v 0.016180 -0.011756 -0.004000
v 0.005871 -0.003812 0.004000
v 0.005871 -0.003812 -0.004000
v 0.016773 -0.010893 0.004000
v 0.016773 -0.010893 -0.004000
v 0.006062 -0.003500 0.004000
v 0.006062 -0.003500 -0.004000
v 0.017321 -0.010000 0.004000
v 0.017321 -0.010000 -0.004000
v 0.006237 -0.003178 0.004000
v 0.006237 -0.003178 -0.004000
v 0.017820 -0.009080 0.004000
v 0.017820 -0.009080 -0.004000
v 0.006395 -0.002847 0.004000
v 0.006395 -0.002847 -0.004000
v 0.018271 -0.008135 0.004000
v 0.018271 -0.008135 -0.004000
v 0.006535 -0.002509 0.004000
v 0.006535 -0.002509 -0.004000
v 0.018672 -0.007167 0.004000
v 0.018672 -0.007167 -0.004000
v 0.006657 -0.002163 0.004000
v 0.006657 -0.002163 -0.004000
v 0.019021 -0.006180 0.004000
v 0.019021 -0.006180 -0.004000
v 0.006761 -0.001812 0.004000
v 0.006761 -0.001812 -0.004000
v 0.019319 -0.005176 0.004000
v 0.019319 -0.005176 -0.004000
v 0.006847 -0.001455 0.004000
v 0.006847 -0.001455 -0.004000
v 0.019563 -0.004158 0.004000
v 0.019563 -0.004158 -0.004000
v 0.006914 -0.001095 0.004000
v 0.006914 -0.001095 -0.004000
v 0.019754 -0.003129 0.004000
v 0.019754 -0.003129 -0.004000
v 0.006962 -0.000732 0.004000
v 0.006962 -0.000732 -0.004000
v 0.019890 -0.002091 0.004000
v 0.019890 -0.002091 -0.004000
v 0.006990 -0.000366 0.004000
v 0.006990 -0.000366 -0.004000
v 0.019973 -0.001047 0.004000
v 0.019973 -0.001047 -0.004000
vn 0.000000 0.000000 -1.000000
vn 0.000000 0.000000 -1.000000
vn 0.000000 -0.000000 1.000000
vn 0.000000 0.000000 1.000000
vn 0.999657 0.026177 0.000000
vn 0.999657 0.026177 0.000000
vn -0.999657 -0.026177 -0.000000
vn -0.999657 -0.026177 -0.000000
vn 0.000000 0.000000 -1.000000
vn 0.000000 0.000000 -1.000000
vn 0.000000 -0.000000 1.000000
vn 0.000000 0.000000 1.000000
vn 0.996917 0.078459 0.000000
vn 0.996917 0.078459 0.000000
vn -0.996917 -0.078459 -0.000000
vn -0.996917 -0.078459 -0.000000
vn 0.000000 0.000000 -1.000000
vn 0.000000 0.000000 -1.000000
vn 0.000000 -0.000000 1.000000
vn 0.000000 0.000000 1.000000
vn 0.991445 0.130526 0.000000
vn 0.991445 0.130526 0.000000
vn -0.991445 -0.130526 -0.000000
vn -0.991445 -0.130526 -0.000000
vn 0.000000 0.000000 -1.000000
vn 0.000000 0.000000 -1.000000
vn 0.000000 -0.000000 1.000000
vn 0.000000 0.000000 1.000000
vn 0.983255 0.182236 0.000000
vn 0.983255 0.182236 0.000000
vn -0.983255 -0.182236 -0.000000
vn -0.983255 -0.182236 -0.000000
vn 0.000000 0.000000 -1.000000
vn 0.000000 0.000000 -1.000000
vn 0.000000 -0.000000 1.000000
vn 0.000000 0.000000 1.000000
vn 0.972370 0.233445 0.000000
vn 0.972370 0.233445 0.000000
vn -0.972370 -0.233445 -0.000000
vn -0.972370 -0.233445 -0.000000
vn 0.000000 0.000000 -1.000000
vn 0.000000 0.000000 -1.000000
vn 0.000000 -0.000000 1.000000
vn 0.000000 0.000000 1.000000
vn 0.958820 0.284015 0.000000
vn 0.958820 0.284015 0.000000
vn -0.958820 -0.284015 -0.000000
vn -0.958820 -0.284015 -0.000000
vn 0.000000 0.000000 -1.000000
vn 0.000000 0.000000 -1.000000
vn 0.000000 -0.000000 1.000000
vn 0.000000 0.000000 1.000000
vn 0.942641 0.333807 0.000000
vn 0.942641 0.333807 0.000000
vn -0.942641 -0.333807 -0.000000
vn -0.942641 -0.333807 -0.000000
vn 0.000000 0.000000 -1.000000
vn 0.000000 0.000000 -1.000000
vn 0.000000 -0.000000 1.000000
vn 0.000000 0.000000 1.000000
vn 0.923880 0.382683 0.000000
vn 0.923880 0.382683 0.000000
vn -0.923880 -0.382683 -0.000000
vn -0.923880 -0.382683 -0.000000
vn 0.000000 0.000000 -1.000000
vn 0.000000 0.000000 -1.000000
vn 0.000000 -0.000000 1.000000
vn 0.000000 0.000000 1.000000
vn 0.902585 0.430511 0.000000
vn 0.902585 0.430511 0.000000
vn -0.902585 -0.430511 -0.000000
vn -0.902585 -0.430511 -0.000000
vn 0.000000 0.000000 -1.000000
vn 0.000000 0.000000 -1.000000
vn 0.000000 -0.000000 1.000000
vn 0.000000 0.000000 1.000000
vn 0.878817 0.477159 0.000000
vn 0.878817 0.477159 0.000000
vn -0.878817 -0.477159 -0.000000
vn -0.878817 -0.477159 -0.000000
vn 0.000000 0.000000 -1.000000
vn 0.000000 0.000000 -1.000000
vn 0.000000 -0.000000 1.000000
vn 0.000000 0.000000 1.000000
vn 0.852640 0.522499 0.000000
vn 0.852640 0.522499 0.000000
vn -0.852640 -0.522499 -0.000000
vn -0.852640 -0.522499 -0.000000
vn 0.000000 0.000000 -1.000000
vn 0.000000 0.000000 -1.000000
vn 0.000000 -0.000000 1.000000
vn 0.000000 0.000000 1.000000
vn 0.824126 0.566406 0.000000
vn 0.824126 0.566406 0.000000
vn -0.824126 -0.566406 -0.000000
vn -0.824126 -0.566406 -0.000000
vn 0.000000 0.000000 -1.000000
vn 0.000000 0.000000 -1.000000
vn 0.000000 -0.000000 1.000000
vn 0.000000 0.000000 1.000000
vn 0.793353 0.608761 0.000000
vn 0.793353 0.608761 0.000000
vn -0.793353 -0.608761 -0.000000
vn -0.793353 -0.608761 -0.000000
vn 0.000000 0.000000 -1.000000
vn 0.000000 0.000000 -1.000000
vn 0.000000 -0.000000 1.000000
vn 0.000000 0.000000 1.000000
vn 0.760406 0.649448 0.000000
vn 0.760406 0.649448 0.000000
vn -0.760406 -0.649448 -0.000000
vn -0.760406 -0.649448 -0.000000
vn 0.000000 0.000000 -1.000000
vn 0.000000 0.000000 -1.000000
vn 0.000000 -0.000000 1.000000
vn 0.000000 0.000000 1.000000
vn 0.725374 0.688355 0.000000
vn 0.725374 0.688355 0.000000
vn -0.725374 -0.688355 -0.000000
vn -0.725374 -0.688355 -0.000000
vn 0.000000 0.000000 -1.000000
vn 0.000000 0.000000 -1.000000
vn 0.000000 -0.000000 1.000000
vn 0.000000 0.000000 1.000000
vn 0.688355 0.725374 0.000000
vn 0.688355 0.725374 0.000000
vn -0.688355 -0.725374 -0.000000
vn -0.688355 -0.725374 -0.000000
vn 0.000000 0.000000 -1.000000
vn 0.000000 0.000000 -1.000000
vn 0.000000 -0.000000 1.000000
vn 0.000000 0.000000 1.000000
vn 0.649448 0.760406 0.000000
vn 0.649448 0.760406 0.000000
vn -0.649448 -0.760406 -0.000000
vn -0.649448 -0.760406 -0.000000
vn 0.000000 0.000000 -1.000000
vn 0.000000 0.000000 -1.000000
vn 0.000000 -0.000000 1.000000
vn 0.000000 0.000000 1.000000
vn 0.608761 0.793353 0.000000
vn 0.608761 0.793353 0.000000
vn -0.608761 -0.793353 -0.000000
vn -0.608761 -0.793353 -0.000000
vn 0.000000 0.000000 -1.000000
vn 0.000000 0.000000 -1.000000
vn 0.000000 -0.000000 1.000000
vn 0.000000 0.000000 1.000000
vn 0.566406 0.824126 0.000000
vn 0.566406 0.824126 0.000000
vn -0.566406 -0.824126 -0.000000
vn -0.566406 -0.824126 -0.000000
vn 0.000000 0.000000 -1.000000
vn 0.000000 0.000000 -1.000000
vn 0.000000 -0.000000 1.000000
vn 0.000000 0.000000 1.000000
vn 0.522499 0.852640 0.000000
vn 0.522499 0.852640 0.000000
vn -0.522499 -0.852640 -0.000000
vn -0.522499 -0.852640 -0.000000
vn 0.000000 0.000000 -1.000000
vn 0.000000 0.000000 -1.000000
vn 0.000000 -0.000000 1.000000
vn 0.000000 0.000000 1.000000
vn 0.477159 0.878817 0.000000
vn 0.477159 0.878817 0.000000
vn -0.477159 -0.878817 -0.000000
vn -0.477159 -0.878817 -0.000000
vn 0.000000 0.000000 -1.000000
vn 0.000000 0.000000 -1.000000
vn 0.000000 -0.000000 1.000000
vn 0.000000 0.000000 1.000000
vn 0.430511 0.902585 0.000000
vn 0.430511 0.902585 0.000000
vn -0.430511 -0.902585 -0.000000
vn -0.430511 -0.902585 -0.000000
vn 0.000000 0.000000 -1.000000
vn 0.000000 0.000000 -1.000000
vn 0.000000 -0.000000 1.000000
vn 0.000000 0.000000 1.000000
vn 0.382683 0.923880 0.000000
vn 0.382683 0.923880 0.000000
vn -0.382683 -0.923880 -0.000000
vn -0.382683 -0.923880 -0.000000
vn 0.000000 0.000000 -1.000000
vn 0.000000 0.000000 -1.000000
vn 0.000000 -0.000000 1.000000
vn 0.000000 0.000000 1.000000
vn 0.333807 0.942641 0.000000
vn 0.333807 0.942641 0.000000
vn -0.333807 -0.942641 -0.000000
vn -0.333807 -0.942641 -0.000000
vn 0.000000 0.000000 -1.000000
vn 0.000000 0.000000 -1.000000
vn 0.000000 -0.000000 1.000000
vn 0.000000 0.000000 1.000000
vn 0.284015 0.958820 0.000000
vn 0.284015 0.958820 0.000000
vn -0.284015 -0.958820 -0.000000
vn -0.284015 -0.958820 -0.000000
vn 0.000000 0.000000 -1.000000
vn 0.000000 0.000000 -1.000000
vn 0.000000 -0.000000 1.000000
vn 0.000000 0.000000 1.000000
vn 0.233445 0.972370 0.000000
vn 0.233445 0.972370 0.000000
vn -0.233445 -0.972370 -0.000000
vn -0.233445 -0.972370 -0.000000
vn 0.000000 0.000000 -1.000000
vn 0.000000 0.000000 -1.000000
vn 0.000000 -0.000000 1.000000
vn 0.000000 0.000000 1.000000
vn 0.182236 0.983255 0.000000
vn 0.182236 0.983255 0.000000
vn -0.182236 -0.983255 -0.000000
vn -0.182236 -0.983255 -0.000000
vn 0.000000 0.000000 -1.000000
vn 0.000000 0.000000 -1.000000
vn 0.000000 -0.000000 1.000000
vn 0.000000 0.000000 1.000000
vn 0.130526 0.991445 0.000000
vn 0.130526 0.991445 0.000000
vn -0.130526 -0.991445 -0.000000
vn -0.130526 -0.991445 -0.000000
vn 0.000000 0.000000 -1.000000
vn 0.000000 0.000000 -1.000000
vn 0.000000 -0.000000 1.000000
vn 0.000000 0.000000 1.000000
vn 0.078459 0.996917 0.000000
vn 0.078459 0.996917 0.000000
vn -0.078459 -0.996917 -0.000000
vn -0.078459 -0.996917 -0.000000
vn 0.000000 0.000000 -1.000000
vn 0.000000 0.000000 -1.000000
vn 0.000000 0.000000 1.000000
vn 0.000000 -0.000000 1.000000
vn 0.026177 0.999657 0.000000
vn 0.026177 0.999657 0.000000
vn -0.026177 -0.999657 -0.000000
vn -0.026177 -0.999657 -0.000000
vn -0.000000 0.000000 -1.000000
vn 0.000000 0.000000 -1.000000
vn 0.000000 0.000000 1.000000
vn 0.000000 -0.000000 1.000000
vn -0.026177 0.999657 0.000000
vn -0.026177 0.999657 0.000000
vn 0.026177 -0.999657 0.000000
vn 0.026177 -0.999657 0.000000
vn -0.000000 0.000000 -1.000000
vn 0.000000 0.000000 -1.000000
vn 0.000000 0.000000 1.000000
vn 0.000000 0.000000 1.000000
vn -0.078459 0.996917 0.000000
vn -0.078459 0.996917 0.000000
vn 0.078459 -0.996917 0.000000
vn 0.078459 -0.996917 0.000000
vn -0.000000 0.000000 -1.000000
vn 0.000000 0.000000 -1.000000
vn 0.000000 0.000000 1.000000
vn 0.000000 0.000000 1.000000
vn -0.130526 0.991445 0.000000
vn -0.130526 0.991445 0.000000
vn 0.130526 -0.991445 0.000000
vn 0.130526 -0.991445 0.000000
vn -0.000000 0.000000 -1.000000
vn 0.000000 0.000000 -1.000000
vn 0.000000 0.000000 1.000000
vn 0.000000 0.000000 1.000000
vn -0.182236 0.983255 0.000000
vn -0.182236 0.983255 0.000000
vn 0.182236 -0.983255 0.000000
vn 0.182236 -0.983255 0.000000
vn -0.000000 0.000000 -1.000000
vn 0.000000 0.000000 -1.000000
vn 0.000000 0.000000 1.000000
vn 0.000000 0.000000 1.000000
vn -0.233445 0.972370 0.000000
vn -0.233445 0.972370 0.000000
vn 0.233445 -0.972370 0.000000
vn 0.233445 -0.972370 0.000000
vn -0.000000 0.000000 -1.000000
vn 0.000000 0.000000 -1.000000
vn 0.000000 0.000000 1.000000
vn 0.000000 0.000000 1.000000
vn -0.284015 0.958820 0.000000
vn -0.284015 0.958820 0.000000
vn 0.284015 -0.958820 0.000000
vn 0.284015 -0.958820 0.000000
vn -0.000000 0.000000 -1.000000
vn 0.000000 0.000000 -1.000000
vn 0.000000 0.000000 1.000000
vn 0.000000 0.000000 1.000000
vn -0.333807 0.942641 0.000000
vn -0.333807 0.942641 0.000000
vn 0.333807 -0.942641 0.000000
vn 0.333807 -0.942641 0.000000
vn -0.000000 0.000000 -1.000000
vn 0.000000 0.000000 -1.000000
vn 0.000000 0.000000 1.000000
vn 0.000000 0.000000 1.000000
vn -0.382683 0.923880 0.000000
vn -0.382683 0.923880 0.000000
vn 0.382683 -0.923880 0.000000
vn 0.382683 -0.923880 0.000000
vn -0.000000 0.000000 -1.000000
vn 0.000000 0.000000 -1.000000
vn 0.000000 0.000000 1.000000
vn 0.000000 0.000000 1.000000
vn -0.430511 0.902585 0.000000
vn -0.430511 0.902585 0.000000
vn 0.430511 -0.902585 0.000000
vn 0.430511 -0.902585 0.000000
vn -0.000000 0.000000 -1.000000
vn 0.000000 0.000000 -1.000000
vn 0.000000 0.000000 1.000000
vn 0.000000 0.000000 1.000000
vn -0.477159 0.878817 0.000000
vn -0.477159 0.878817 0.000000
vn 0.477159 -0.878817 0.000000
vn 0.477159 -0.878817 0.000000
vn -0.000000 0.000000 -1.000000
vn 0.000000 0.000000 -1.000000
vn 0.000000 0.000000 1.000000
vn 0.000000 0.000000 1.000000
vn -0.522499 0.852640 0.000000
vn -0.522499 0.852640 0.000000
vn 0.522499 -0.852640 0.000000
vn 0.522499 -0.852640 0.000000
vn -0.000000 0.000000 -1.000000
vn 0.000000 0.000000 -1.000000
vn 0.000000 0.000000 1.000000
vn 0.000000 0.000000 1.000000
vn -0.566406 0.824126 0.000000
vn -0.566406 0.824126 0.000000
vn 0.566406 -0.824126 0.000000
vn 0.566406 -0.824126 0.000000
vn -0.000000 0.000000 -1.000000
vn 0.000000 0.000000 -1.000000
vn 0.000000 0.000000 1.000000
vn 0.000000 0.000000 1.000000
vn -0.608761 0.793353 0.000000
vn -0.608761 0.793353 0.000000
vn 0.608761 -0.793353 0.000000
vn 0.608761 -0.793353 0.000000
vn -0.000000 0.000000 -1.000000
vn 0.000000 0.000000 -1.000000
vn 0.000000 0.000000 1.000000
vn 0.000000 0.000000 1.000000
vn -0.649448 0.760406 0.000000
vn -0.649448 0.760406 0.000000
vn 0.649448 -0.760406 0.000000
vn 0.649448 -0.760406 0.000000
vn -0.000000 0.000000 -1.000000
vn 0.000000 0.000000 -1.000000
vn 0.000000 0.000000 1.000000
vn 0.000000 0.000000 1.000000
vn -0.688355 0.725374 0.000000
vn -0.688355 0.725374 0.000000
vn 0.688355 -0.725374 0.000000
vn 0.688355 -0.725374 0.000000
vn -0.000000 0.000000 -1.000000
vn 0.000000 0.000000 -1.000000
vn 0.000000 0.000000 1.000000
vn 0.000000 0.000000 1.000000
vn -0.725374 0.688355 0.000000
vn -0.725374 0.688355 0.000000
vn 0.725374 -0.688355 0.000000
vn 0.725374 -0.688355 0.000000
vn -0.000000 0.000000 -1.000000
vn 0.000000 0.000000 -1.000000
vn 0.000000 0.000000 1.000000
vn 0.000000 0.000000 1.000000
vn -0.760406 0.649448 0.000000
vn -0.760406 0.649448 0.000000
vn 0.760406 -0.649448 0.000000
vn 0.760406 -0.649448 0.000000
vn -0.000000 0.000000 -1.000000
vn 0.000000 0.000000 -1.000000
vn 0.000000 0.000000 1.000000
vn 0.000000 0.000000 1.000000
vn -0.793353 0.608761 0.000000
vn -0.793353 0.608761 0.000000
vn 0.793353 -0.608761 0.000000
vn 0.793353 -0.608761 0.000000
vn -0.000000 0.000000 -1.000000
vn 0.000000 0.000000 -1.000000
vn 0.000000 0.000000 1.000000
vn 0.000000 0.000000 1.000000
vn -0.824126 0.566406 0.000000
vn -0.824126 0.566406 0.000000
vn 0.824126 -0.566406 0.000000
vn 0.824126 -0.566406 0.000000
vn -0.000000 0.000000 -1.000000
vn 0.000000 0.000000 -1.000000
vn 0.000000 0.000000 1.000000
vn 0.000000 0.000000 1.000000
vn -0.852640 0.522499 0.000000
vn -0.852640 0.522499 0.000000
vn 0.852640 -0.522499 0.000000
vn 0.852640 -0.522499 0.000000
vn -0.000000 0.000000 -1.000000
vn 0.000000 0.000000 -1.000000
vn 0.000000 0.000000 1.000000
vn 0.000000 0.000000 1.000000
vn -0.878817 0.477159 0.000000
vn -0.878817 0.477159 0.000000
vn 0.878817 -0.477159 0.000000
vn 0.878817 -0.477159 0.000000
vn -0.000000 0.000000 -1.000000
vn 0.000000 0.000000 -1.000000
vn 0.000000 0.000000 1.000000
vn 0.000000 0.000000 1.000000
vn -0.902585 0.430511 0.000000
vn -0.902585 0.430511 0.000000
vn 0.902585 -0.430511 0.000000
vn 0.902585 -0.430511 0.000000
vn -0.000000 0.000000 -1.000000
vn 0.000000 0.000000 -1.000000
vn 0.000000 0.000000 1.000000
vn 0.000000 0.000000 1.000000
vn -0.923880 0.382683 0.000000
vn -0.923880 0.382683 0.000000
vn 0.923880 -0.382683 0.000000
vn 0.923880 -0.382683 0.000000
vn -0.000000 0.000000 -1.000000
vn 0.000000 0.000000 -1.000000
vn 0.000000 0.000000 1.000000
vn 0.000000 0.000000 1.000000
vn -0.942641 0.333807 0.000000
vn -0.942641 0.333807 0.000000
vn 0.942641 -0.333807 0.000000
vn 0.942641 -0.333807 0.000000
vn -0.000000 0.000000 -1.000000
vn 0.000000 0.000000 -1.000000
vn 0.000000 0.000000 1.000000
vn 0.000000 0.000000 1.000000
vn -0.958820 0.284015 0.000000
vn -0.958820 0.284015 0.000000
vn 0.958820 -0.284015 0.000000
vn 0.958820 -0.284015 0.000000
vn -0.000000 0.000000 -1.000000
vn 0.000000 0.000000 -1.000000
vn 0.000000 0.000000 1.000000
vn 0.000000 0.000000 1.000000
vn -0.972370 0.233445 0.000000
vn -0.972370 0.233445 0.000000
vn 0.972370 -0.233445 0.000000
vn 0.972370 -0.233445 0.000000
vn -0.000000 0.000000 -1.000000
vn 0.000000 0.000000 -1.000000
vn 0.000000 0.000000 1.000000
vn 0.000000 0.000000 1.000000
vn -0.983255 0.182236 0.000000
vn -0.983255 0.182236 0.000000
vn 0.983255 -0.182236 0.000000
vn 0.983255 -0.182236 0.000000
vn -0.000000 0.000000 -1.000000
vn 0.000000 0.000000 -1.000000
vn 0.000000 0.000000 1.000000
vn 0.000000 0.000000 1.000000
vn -0.991445 0.130526 0.000000
vn -0.991445 0.130526 0.000000
vn 0.991445 -0.130526 0.000000
vn 0.991445 -0.130526 0.000000
vn -0.000000 0.000000 -1.000000
vn 0.000000 0.000000 -1.000000
vn 0.000000 0.000000 1.000000
vn 0.000000 0.000000 1.000000
vn -0.996917 0.078459 0.000000
vn -0.996917 0.078459 0.000000
vn 0.996917 -0.078459 0.000000
vn 0.996917 -0.078459 0.000000
vn 0.000000 0.000000 -1.000000
vn -0.000000 0.000000 -1.000000
vn 0.000000 0.000000 1.000000
vn 0.000000 0.000000 1.000000
vn -0.999657 0.026177 0.000000
vn -0.999657 0.026177 0.000000
vn 0.999657 -0.026177 0.000000
vn 0.999657 -0.026177 0.000000
vn 0.000000 -0.000000 -1.000000
vn -0.000000 0.000000 -1.000000
vn 0.000000 0.000000 1.000000
vn 0.000000 0.000000 1.000000
vn -0.999657 -0.026177 -0.000000
vn -0.999657 -0.026177 -0.000000
vn 0.999657 0.026177 0.000000
vn 0.999657 0.026177 0.000000
vn 0.000000 -0.000000 -1.000000
vn 0.000000 0.000000 -1.000000
vn 0.000000 0.000000 1.000000
vn 0.000000 0.000000 1.000000
vn -0.996917 -0.078459 -0.000000
vn -0.996917 -0.078459 -0.000000
vn 0.996917 0.078459 0.000000
vn 0.996917 0.078459 0.000000
vn 0.000000 -0.000000 -1.000000
vn 0.000000 0.000000 -1.000000
vn 0.000000 0.000000 1.000000
vn 0.000000 0.000000 1.000000
vn -0.991445 -0.130526 -0.000000
vn -0.991445 -0.130526 -0.000000
vn 0.991445 0.130526 0.000000
vn 0.991445 0.130526 0.000000
vn 0.000000 -0.000000 -1.000000
vn 0.000000 0.000000 -1.000000
vn 0.000000 0.000000 1.000000
vn 0.000000 0.000000 1.000000
vn -0.983255 -0.182236 -0.000000
vn -0.983255 -0.182236 -0.000000
vn 0.983255 0.182236 0.000000
vn 0.983255 0.182236 0.000000
vn 0.000000 -0.000000 -1.000000
vn 0.000000 0.000000 -1.000000
vn 0.000000 0.000000 1.000000
vn 0.000000 0.000000 1.000000
vn -0.972370 -0.233445 -0.000000
vn -0.972370 -0.233445 -0.000000
vn 0.972370 0.233445 0.000000
vn 0.972370 0.233445 0.000000
vn 0.000000 -0.000000 -1.000000
vn 0.000000 0.000000 -1.000000
vn 0.000000 0.000000 1.000000
vn 0.000000 0.000000 1.000000
vn -0.958820 -0.284015 -0.000000
vn -0.958820 -0.284015 -0.000000
vn 0.958820 0.284015 0.000000
vn 0.958820 0.284015 0.000000
vn 0.000000 -0.000000 -1.000000
vn 0.000000 0.000000 -1.000000
vn 0.000000 0.000000 1.000000
vn 0.000000 0.000000 1.000000
vn -0.942641 -0.333807 -0.000000
vn -0.942641 -0.333807 -0.000000
vn 0.942641 0.333807 0.000000
vn 0.942641 0.333807 0.000000
vn 0.000000 -0.000000 -1.000000
vn 0.000000 0.000000 -1.000000
vn 0.000000 0.000000 1.000000
vn 0.000000 0.000000 1.000000
vn -0.923880 -0.382683 -0.000000
vn -0.923880 -0.382683 -0.000000
vn 0.923880 0.382683 0.000000
vn 0.923880 0.382683 0.000000
vn 0.000000 -0.000000 -1.000000
vn 0.000000 0.000000 -1.000000
vn 0.000000 0.000000 1.000000
vn 0.000000 0.000000 1.000000
vn -0.902585 -0.430511 -0.000000
vn -0.902585 -0.430511 -0.000000
vn 0.902585 0.430511 0.000000
vn 0.902585 0.430511 0.000000
vn 0.000000 -0.000000 -1.000000
vn 0.000000 0.000000 -1.000000
vn 0.000000 0.000000 1.000000
vn 0.000000 0.000000 1.000000
vn -0.878817 -0.477159 -0.000000
vn -0.878817 -0.477159 -0.000000
vn 0.878817 0.477159 0.000000
vn 0.878817 0.477159 0.000000
vn 0.000000 -0.000000 -1.000000
vn 0.000000 0.000000 -1.000000
vn 0.000000 0.000000 1.000000
vn 0.000000 0.000000 1.000000
vn -0.852640 -0.522499 -0.000000
vn -0.852640 -0.522499 -0.000000
vn 0.852640 0.522499 0.000000
vn 0.852640 0.522499 0.000000
vn 0.000000 -0.000000 -1.000000
vn 0.000000 0.000000 -1.000000
vn 0.000000 0.000000 1.000000
vn 0.000000 0.000000 1.000000
vn -0.824126 -0.566406 -0.000000
vn -0.824126 -0.566406 -0.000000
vn 0.824126 0.566406 0.000000
vn 0.824126 0.566406 0.000000
vn 0.000000 -0.000000 -1.000000
vn 0.000000 0.000000 -1.000000
vn 0.000000 0.000000 1.000000
vn 0.000000 0.000000 1.000000
vn -0.793353 -0.608761 -0.000000
vn -0.793353 -0.608761 -0.000000
vn 0.793353 0.608761 0.000000
vn 0.793353 0.608761 0.000000
vn 0.000000 -0.000000 -1.000000
vn 0.000000 0.000000 -1.000000
vn 0.000000 0.000000 1.000000
vn 0.000000 0.000000 1.000000
vn -0.760406 -0.649448 -0.000000
vn -0.760406 -0.649448 -0.000000
vn 0.760406 0.649448 0.000000
vn 0.760406 0.649448 0.000000
vn 0.000000 -0.000000 -1.000000
vn 0.000000 0.000000 -1.000000
vn 0.000000 0.000000 1.000000
vn 0.000000 0.000000 1.000000
vn -0.725374 -0.688355 -0.000000
vn -0.725374 -0.688355 -0.000000
vn 0.725374 0.688355 0.000000
vn 0.725374 0.688355 0.000000
vn 0.000000 -0.000000 -1.000000
vn 0.000000 0.000000 -1.000000
vn 0.000000 0.000000 1.000000
vn 0.000000 0.000000 1.000000
vn -0.688355 -0.725374 -0.000000
vn -0.688355 -0.725374 -0.000000
vn 0.688355 0.725374 0.000000
vn 0.688355 0.725374 0.000000
vn 0.000000 -0.000000 -1.000000
vn 0.000000 0.000000 -1.000000
vn 0.000000 0.000000 1.000000
vn 0.000000 0.000000 1.000000
vn -0.649448 -0.760406 -0.000000
vn -0.649448 -0.760406 -0.000000
vn 0.649448 0.760406 0.000000
vn 0.649448 0.760406 0.000000
vn 0.000000 -0.000000 -1.000000
vn 0.000000 0.000000 -1.000000
vn 0.000000 0.000000 1.000000
vn 0.000000 0.000000 1.000000
vn -0.608761 -0.793353 -0.000000
vn -0.608761 -0.793353 -0.000000
vn 0.608761 0.793353 0.000000
vn 0.608761 0.793353 0.000000
vn 0.000000 -0.000000 -1.000000
vn 0.000000 0.000000 -1.000000
vn 0.000000 0.000000 1.000000
vn 0.000000 0.000000 1.000000
vn -0.566406 -0.824126 -0.000000
vn -0.566406 -0.824126 -0.000000
vn 0.566406 0.824126 0.000000
vn 0.566406 0.824126 0.000000
vn 0.000000 -0.000000 -1.000000
vn 0.000000 0.000000 -1.000000
vn 0.000000 0.000000 1.000000
vn 0.000000 0.000000 1.000000
vn -0.522499 -0.852640 -0.000000
vn -0.522499 -0.852640 -0.000000
vn 0.522499 0.852640 0.000000
vn 0.522499 0.852640 0.000000
vn 0.000000 -0.000000 -1.000000
vn 0.000000 0.000000 -1.000000
vn 0.000000 0.000000 1.000000
vn 0.000000 0.000000 1.000000
vn -0.477159 -0.878817 -0.000000
vn -0.477159 -0.878817 -0.000000
vn 0.477159 0.878817 0.000000
vn 0.477159 0.878817 0.000000
vn 0.000000 -0.000000 -1.000000
vn 0.000000 0.000000 -1.000000
vn 0.000000 0.000000 1.000000
vn 0.000000 0.000000 1.000000
vn -0.430511 -0.902585 -0.000000
vn -0.430511 -0.902585 -0.000000
vn 0.430511 0.902585 0.000000
vn 0.430511 0.902585 0.000000
vn 0.000000 -0.000000 -1.000000
vn 0.000000 0.000000 -1.000000
vn 0.000000 0.000000 1.000000
vn 0.000000 0.000000 1.000000
vn -0.382683 -0.923880 -0.000000
vn -0.382683 -0.923880 -0.000000
vn 0.382683 0.923880 0.000000
vn 0.382683 0.923880 0.000000
vn 0.000000 -0.000000 -1.000000
vn 0.000000 0.000000 -1.000000
vn 0.000000 0.000000 1.000000
vn 0.000000 0.000000 1.000000
vn -0.333807 -0.942641 -0.000000
vn -0.333807 -0.942641 -0.000000
vn 0.333807 0.942641 0.000000
vn 0.333807 0.942641 0.000000
vn 0.000000 -0.000000 -1.000000
vn 0.000000 0.000000 -1.000000
vn 0.000000 0.000000 1.000000
vn 0.000000 0.000000 1.000000
vn -0.284015 -0.958820 -0.000000
vn -0.284015 -0.958820 -0.000000
vn 0.284015 0.958820 0.000000
vn 0.284015 0.958820 0.000000
vn 0.000000 -0.000000 -1.000000
vn 0.000000 0.000000 -1.000000
vn 0.000000 0.000000 1.000000
vn 0.000000 0.000000 1.000000
vn -0.233445 -0.972370 -0.000000
vn -0.233445 -0.972370 -0.000000
vn 0.233445 0.972370 0.000000
vn 0.233445 0.972370 0.000000
vn 0.000000 -0.000000 -1.000000
vn 0.000000 0.000000 -1.000000
vn 0.000000 0.000000 1.000000
vn 0.000000 0.000000 1.000000
vn -0.182236 -0.983255 -0.000000
vn -0.182236 -0.983255 -0.000000
vn 0.182236 0.983255 0.000000
vn 0.182236 0.983255 0.000000
vn 0.000000 -0.000000 -1.000000
vn 0.000000 0.000000 -1.000000
vn 0.000000 0.000000 1.000000
vn 0.000000 0.000000 1.000000
vn -0.130526 -0.991445 -0.000000
vn -0.130526 -0.991445 -0.000000
vn 0.130526 0.991445 0.000000
vn 0.130526 0.991445 0.000000
vn 0.000000 -0.000000 -1.000000
vn 0.000000 0.000000 -1.000000
vn 0.000000 0.000000 1.000000
vn 0.000000 0.000000 1.000000
vn -0.078459 -0.996917 -0.000000
vn -0.078459 -0.996917 -0.000000
vn 0.078459 0.996917 0.000000
vn 0.078459 0.996917 0.000000
vn 0.000000 0.000000 -1.000000
vn 0.000000 -0.000000 -1.000000
vn 0.000000 0.000000 1.000000
vn 0.000000 0.000000 1.000000
vn -0.026177 -0.999657 -0.000000
vn -0.026177 -0.999657 -0.000000
vn 0.026177 0.999657 0.000000
vn 0.026177 0.999657 0.000000
vn 0.000000 0.000000 -1.000000
vn 0.000000 -0.000000 -1.000000
vn -0.000000 0.000000 1.000000
vn 0.000000 0.000000 1.000000
vn 0.026177 -0.999657 0.000000
vn 0.026177 -0.999657 0.000000
vn -0.026177 0.999657 0.000000
vn -0.026177 0.999657 0.000000
vn 0.000000 0.000000 -1.000000
vn 0.000000 0.000000 -1.000000
vn -0.000000 0.000000 1.000000
vn 0.000000 0.000000 1.000000
vn 0.078459 -0.996917 0.000000
vn 0.078459 -0.996917 0.000000
vn -0.078459 0.996917 0.000000
vn -0.078459 0.996917 0.000000
vn 0.000000 0.000000 -1.000000
vn 0.000000 0.000000 -1.000000
vn -0.000000 0.000000 1.000000
vn 0.000000 0.000000 1.000000
vn 0.130526 -0.991445 0.000000
vn 0.130526 -0.991445 0.000000
vn -0.130526 0.991445 0.000000
vn -0.130526 0.991445 0.000000
vn 0.000000 0.000000 -1.000000
vn 0.000000 0.000000 -1.000000
vn -0.000000 0.000000 1.000000
vn 0.000000 0.000000 1.000000
vn 0.182236 -0.983255 0.000000
vn 0.182236 -0.983255 0.000000
vn -0.182236 0.983255 0.000000
vn -0.182236 0.983255 0.000000
vn 0.000000 0.000000 -1.000000
vn 0.000000 0.000000 -1.000000
vn -0.000000 0.000000 1.000000
vn 0.000000 0.000000 1.000000
vn 0.233445 -0.972370 0.000000
vn 0.233445 -0.972370 0.000000
vn -0.233445 0.972370 0.000000
vn -0.233445 0.972370 0.000000
vn 0.000000 0.000000 -1.000000
vn 0.000000 0.000000 -1.000000
vn -0.000000 0.000000 1.000000
vn 0.000000 0.000000 1.000000
vn 0.284015 -0.958820 0.000000
vn 0.284015 -0.958820 0.000000
vn -0.284015 0.958820 0.000000
vn -0.284015 0.958820 0.000000
vn 0.000000 0.000000 -1.000000
vn 0.000000 0.000000 -1.000000
vn -0.000000 0.000000 1.000000
vn 0.000000 0.000000 1.000000
vn 0.333807 -0.942641 0.000000
vn 0.333807 -0.942641 0.000000
vn -0.333807 0.942641 0.000000
vn -0.333807 0.942641 0.000000
vn 0.000000 0.000000 -1.000000
vn 0.000000 0.000000 -1.000000
vn -0.000000 0.000000 1.000000
vn 0.000000 0.000000 1.000000
vn 0.382683 -0.923880 0.000000
vn 0.382683 -0.923880 0.000000
vn -0.382683 0.923880 0.000000
vn -0.382683 0.923880 0.000000
vn 0.000000 0.000000 -1.000000
vn 0.000000 0.000000 -1.000000
vn -0.000000 0.000000 1.000000
vn 0.000000 0.000000 1.000000
vn 0.430511 -0.902585 0.000000
vn 0.430511 -0.902585 0.000000
vn -0.430511 0.902585 0.000000
vn -0.430511 0.902585 0.000000
vn 0.000000 0.000000 -1.000000
vn 0.000000 0.000000 -1.000000
vn -0.000000 0.000000 1.000000
vn 0.000000 0.000000 1.000000
vn 0.477159 -0.878817 0.000000
vn 0.477159 -0.878817 0.000000
vn -0.477159 0.878817 0.000000
vn -0.477159 0.878817 0.000000
vn 0.000000 0.000000 -1.000000
vn 0.000000 0.000000 -1.000000
vn -0.000000 0.000000 1.000000
vn 0.000000 0.000000 1.000000
vn 0.522499 -0.852640 0.000000
vn 0.522499 -0.852640 0.000000
vn -0.522499 0.852640 0.000000
vn -0.522499 0.852640 0.000000
vn 0.000000 0.000000 -1.000000
vn 0.000000 0.000000 -1.000000
vn -0.000000 0.000000 1.000000
vn 0.000000 0.000000 1.000000
vn 0.566406 -0.824126 0.000000
vn 0.566406 -0.824126 0.000000
vn -0.566406 0.824126 0.000000
vn -0.566406 0.824126 0.000000
vn 0.000000 0.000000 -1.000000
vn 0.000000 0.000000 -1.000000
vn -0.000000 0.000000 1.000000
vn 0.000000 0.000000 1.000000
vn 0.608761 -0.793353 0.000000
vn 0.608761 -0.793353 0.000000
vn -0.608761 0.793353 0.000000
vn -0.608761 0.793353 0.000000
vn 0.000000 0.000000 -1.000000
vn 0.000000 0.000000 -1.000000
vn -0.000000 0.000000 1.000000
vn 0.000000 0.000000 1.000000
vn 0.649448 -0.760406 0.000000
vn 0.649448 -0.760406 0.000000
vn -0.649448 0.760406 0.000000
vn -0.649448 0.760406 0.000000
vn 0.000000 0.000000 -1.000000
vn 0.000000 0.000000 -1.000000
vn -0.000000 0.000000 1.000000
vn 0.000000 0.000000 1.000000
vn 0.688355 -0.725374 0.000000
vn 0.688355 -0.725374 0.000000
vn -0.688355 0.725374 0.000000
vn -0.688355 0.725374 0.000000
vn 0.000000 0.000000 -1.000000
vn 0.000000 0.000000 -1.000000
vn -0.000000 0.000000 1.000000
vn 0.000000 0.000000 1.000000
vn 0.725374 -0.688355 0.000000
vn 0.725374 -0.688355 0.000000
vn -0.725374 0.688355 0.000000
vn -0.725374 0.688355 0.000000
vn 0.000000 0.000000 -1.000000
vn 0.000000 0.000000 -1.000000
vn -0.000000 0.000000 1.000000
vn 0.000000 0.000000 1.000000
vn 0.760406 -0.649448 0.000000
vn 0.760406 -0.649448 0.000000
vn -0.760406 0.649448 0.000000
vn -0.760406 0.649448 0.000000
vn 0.000000 0.000000 -1.000000
vn 0.000000 0.000000 -1.000000
vn -0.000000 0.000000 1.000000
vn 0.000000 0.000000 1.000000
vn 0.793353 -0.608761 0.000000
vn 0.793353 -0.608761 0.000000
vn -0.793353 0.608761 0.000000
vn -0.793353 0.608761 0.000000
vn 0.000000 0.000000 -1.000000
vn 0.000000 0.000000 -1.000000
vn -0.000000 0.000000 1.000000
vn 0.000000 0.000000 1.000000
vn 0.824126 -0.566406 0.000000
vn 0.824126 -0.566406 0.000000
vn -0.824126 0.566406 0.000000
vn -0.824126 0.566406 0.000000
vn 0.000000 0.000000 -1.000000
vn 0.000000 0.000000 -1.000000
vn -0.000000 0.000000 1.000000
vn 0.000000 0.000000 1.000000
vn 0.852640 -0.522499 0.000000
vn 0.852640 -0.522499 0.000000
vn -0.852640 0.522499 0.000000
vn -0.852640 0.522499 0.000000
vn 0.000000 0.000000 -1.000000
vn 0.000000 0.000000 -1.000000
vn -0.000000 0.000000 1.000000
vn 0.000000 0.000000 1.000000
vn 0.878817 -0.477159 0.000000
vn 0.878817 -0.477159 0.000000
vn -0.878817 0.477159 0.000000
vn -0.878817 0.477159 0.000000
vn 0.000000 0.000000 -1.000000
vn 0.000000 0.000000 -1.000000
vn -0.000000 0.000000 1.000000
vn 0.000000 0.000000 1.000000
vn 0.902585 -0.430511 0.000000
vn 0.902585 -0.430511 0.000000
vn -0.902585 0.430511 0.000000
vn -0.902585 0.430511 0.000000
vn 0.000000 0.000000 -1.000000
vn 0.000000 0.000000 -1.000000
vn -0.000000 0.000000 1.000000
vn 0.000000 0.000000 1.000000
vn 0.923880 -0.382683 0.000000
vn 0.923880 -0.382683 0.000000
vn -0.923880 0.382683 0.000000
vn -0.923880 0.382683 0.000000
vn 0.000000 0.000000 -1.000000
vn 0.000000 0.000000 -1.000000
vn -0.000000 0.000000 1.000000
vn 0.000000 0.000000 1.000000
vn 0.942641 -0.333807 0.000000
vn 0.942641 -0.333807 0.000000
vn -0.942641 0.333807 0.000000
vn -0.942641 0.333807 0.000000
vn 0.000000 0.000000 -1.000000
vn 0.000000 0.000000 -1.000000
vn -0.000000 0.000000 1.000000
vn 0.000000 0.000000 1.000000
vn 0.958820 -0.284015 0.000000
vn 0.958820 -0.284015 0.000000
vn -0.958820 0.284015 0.000000
vn -0.958820 0.284015 0.000000
vn 0.000000 0.000000 -1.000000
vn 0.000000 0.000000 -1.000000
vn -0.000000 0.000000 1.000000
vn 0.000000 0.000000 1.000000
vn 0.972370 -0.233445 0.000000
vn 0.972370 -0.233445 0.000000
vn -0.972370 0.233445 0.000000
vn -0.972370 0.233445 0.000000
vn 0.000000 0.000000 -1.000000
vn 0.000000 0.000000 -1.000000
vn -0.000000 0.000000 1.000000
vn 0.000000 0.000000 1.000000
vn 0.983255 -0.182236 0.000000
vn 0.983255 -0.182236 0.000000
vn -0.983255 0.182236 0.000000
vn -0.983255 0.182236 0.000000
vn 0.000000 0.000000 -1.000000
vn 0.000000 0.000000 -1.000000
vn -0.000000 0.000000 1.000000
vn 0.000000 0.000000 1.000000
vn 0.991445 -0.130526 0.000000
vn 0.991445 -0.130526 0.000000
vn -0.991445 0.130526 0.000000
vn -0.991445 0.130526 0.000000
vn 0.000000 0.000000 -1.000000
vn 0.000000 0.000000 -1.000000
vn -0.000000 0.000000 1.000000
vn 0.000000 0.000000 1.000000
vn 0.996917 -0.078459 0.000000
vn 0.996917 -0.078459 0.000000
vn -0.996917 0.078459 0.000000
vn -0.996917 0.078459 0.000000
vn 0.000000 0.000000 -1.000000
vn 0.000000 0.000000 -1.000000
vn 0.000000 0.000000 1.000000
vn -0.000000 0.000000 1.000000
vn 0.999657 -0.026177 0.000000
vn 0.999657 -0.026177 0.000000
vn -0.999657 0.026177 0.000000
vn -0.999657 0.026177 0.000000
f 1//1 5//1 7//1
f 1//2 7//2 3//2
f 2//3 8//3 6//3
f 2//4 4//4 8//4
f 3//5 4//5 7//5
f 7//6 4//6 8//6
f 1//7 5//7 2//7
f 5//8 6//8 2//8
f 5//9 9//9 11//9
f 5//10 11//10 7//10
f 6//11 12//11 10//11
f 6//12 8//12 12//12
f 7//13 8//13 11//13
f 11//14 8//14 12//14
f 5//15 9//15 6//15
f 9//16 10//16 6//16
f 9//17 13//17 15//17
f 9//18 15//18 11//18
f 10//19 16//19 14//19
f 10//20 12//20 16//20
f 11//21 12//21 15//21
f 15//22 12//22 16//22
f 9//23 13//23 10//23
f 13//24 14//24 10//24
f 13//25 17//25 19//25
f 13//26 19//26 15//26
f 14//27 20//27 18//27
f 14//28 16//28 20//28
f 15//29 16//29 19//29
f 19//30 16//30 20//30
f 13//31 17//31 14//31
f 17//32 18//32 14//32
f 17//33 21//33 23//33
f 17//34 23//34 19//34
f 18//35 24//35 22//35
f 18//36 20//36 24//36
f 19//37 20//37 23//37
f 23//38 20//38 24//38
f 17//39 21//39 18//39
f 21//40 22//40 18//40
f 21//41 25//41 27//41
f 21//42 27//42 23//42
f 22//43 28//43 26//43
f 22//44 24//44 28//44
f 23//45 24//45 27//45
f 27//46 24//46 28//46
f 21//47 25//47 22//47
f 25//48 26//48 22//48
f 25//49 29//49 31//49
f 25//50 31//50 27//50
f 26//51 32//51 30//51
f 26//52 28//52 32//52
f 27//53 28//53 31//53
f 31//54 28//54 32//54
f 25//55 29//55 26//55
f 29//56 30//56 26//56
f 29//57 33//57 35//57
f 29//58 35//58 31//58
f 30//59 36//59 34//59
f 30//60 32//60 36//60
f 31//61 32//61 35//61
f 35//62 32//62 36//62
f 29//63 33//63 30//63
f 33//64 34//64 30//64
f 33//65 37//65 39//65
f 33//66 39//66 35//66
f 34//67 40//67 38//67
f 34//68 36//68 40//68
f 35//69 36//69 39//69
f 39//70 36//70 40//70
f 33//71 37//71 34//71
f 37//72 38//72 34//72
f 37//73 41//73 43//73
f 37//74 43//74 39//74
f 38//75 44//75 42//75
f 38//76 40//76 44//76
f 39//77 40//77 43//77
f 43//78 40//78 44//78
f 37//79 41//79 38//79
f 41//80 42//80 38//80
f 41//81 45//81 47//81
f 41//82 47//82 43//82
f 42//83 48//83 46//83
f 42//84 44//84 48//84
f 43//85 44//85 47//85
f 47//86 44//86 48//86
f 41//87 45//87 42//87
f 45//88 46//88 42//88
f 45//89 49//89 51//89
f 45//90 51//90 47//90
f 46//91 52//91 50//91
f 46//92 48//92 52//92
f 47//93 48//93 51//93
f 51//94 48//94 52//94
f 45//95 49//95 46//95
f 49//96 50//96 46//96
f 49//97 53//97 55//97
f 49//98 55//98 51//98
f 50//99 56//99 54//99
f 50//100 52//100 56//100
f 51//101 52//101 55//101
f 55//102 52//102 56//102
f 49//103 53//103 50//103
f 53//104 54//104 50//104
f 53//105 57//105 59//105
f 53//106 59//106 55//106
f 54//107 60//107 58//107
f 54//108 56//108 60//108
f 55//109 56//109 59//109
f 59//110 56//110 60//110
f 53//111 57//111 54//111
f 57//112 58//112 54//112
f 57//113 61//113 63//113
f 57//114 63//114 59//114
f 58//115 64//115 62//115
f 58//116 60//116 64//116
f 59//117 60//117 63//117
f 63//118 60//118 64//118
f 57//119 61//119 58//119
f 61//120 62//120 58//120
f 61//121 65//121 67//121
f 61//122 67//122 63//122
f 62//123 68//123 66//123
f 62//124 64//124 68//124
f 63//125 64//125 67//125
f 67//126 64//126 68//126
f 61//127 65//127 62//127
f 65//128 66//128 62//128
f 65//129 69//129 71//129
f 65//130 71//130 67//130
f 66//131 72//131 70//131
f 66//132 68//132 72//132
f 67//133 68//133 71//133
f 71//134 68//134 72//134
f 65//135 69//135 66//135
f 69//136 70//136 66//136
f 69//137 73//137 75//137
f 69//138 75//138 71//138
f 70//139 76//139 74//139
f 70//140 72//140 76//140
f 71//141 72//141 75//141
f 75//142 72//142 76//142
f 69//143 73//143 70//143
f 73//144 74//144 70//144
f 73//145 77//145 79//145
f 73//146 79//146 75//146
f 74//147 80//147 78//147
f 74//148 76//148 80//148
f 75//149 76//149 79//149
f 79//150 76//150 80//150
f 73//151 77//151 74//151
f 77//152 78//152 74//152
f 77//153 81//153 83//153
f 77//154 83//154 79//154
f 78//155 84//155 82//155
f 78//156 80//156 84//156
f 79//157 80//157 83//157
f 83//158 80//158 84//158
f 77//159 81//159 78//159
f 81//160 82//160 78//160
f 81//161 85//161 87//161
f 81//162 87//162 83//162
f 82//163 88//163 86//163
f 82//164 84//164 88//164
f 83//165 84//165 87//165
f 87//166 84//166 88//166
f 81//167 85//167 82//167
f 85//168 86//168 82//168
f 85//169 89//169 91//169
f 85//170 91//170 87//170
f 86//171 92//171 90//171
f 86//172 88//172 92//172
f 87//173 88//173 91//173
f 91//174 88//174 92//174
f 85//175 89//175 86//175
f 89//176 90//176 86//176
f 89//177 93//177 95//177
f 89//178 95//178 91//178
f 90//179 96//179 94//179
f 90//180 92//180 96//180
f 91//181 92//181 95//181
f 95//182 92//182 96//182
f 89//183 93//183 90//183
f 93//184 94//184 90//184
f 93//185 97//185 99//185
f 93//186 99//186 95//186
f 94//187 100//187 98//187
f 94//188 96//188 100//188
f 95//189 96//189 99//189
f 99//190 96//190 100//190
f 93//191 97//191 94//191
f 97//192 98//192 94//192
f 97//193 101//193 103//193
f 97//194 103//194 99//194
f 98//195 104//195 102//195
f 98//196 100//196 104//196
f 99//197 100//197 103//197
f 103//198 100//198 104//198
f 97//199 101//199 98//199
f 101//200 102//200 98//200
f 101//201 105//201 107//201
f 101//202 107//202 103//202
f 102//203 108//203 106//203
f 102//204 104//204 108//204
f 103//205 104//205 107//205
f 107//206 104//206 108//206
f 101//207 105//207 102//207
f 105//208 106//208 102//208
f 105//209 109//209 111//209
f 105//210 111//210 107//210
f 106//211 112//211 110//211
f 106//212 108//212 112//212
f 107//213 108//213 111//213
f 111//214 108//214 112//214
f 105//215 109//215 106//215
f 109//216 110//216 106//216
f 109//217 113//217 115//217
f 109//218 115//218 111//218
f 110//219 116//219 114//219
f 110//220 112//220 116//220
f 111//221 112//221 115//221
f 115//222 112//222 116//222
f 109//223 113//223 110//223
f 113//224 114//224 110//224
f 113//225 117//225 119//225
f 113//226 119//226 115//226
f 114//227 120//227 118//227
f 114//228 116//228 120//228
f 115//229 116//229 119//229
f 119//230 116//230 120//230
f 113//231 117//231 114//231
f 117//232 118//232 114//232
f 117//233 121//233 123//233
f 117//234 123//234 119//234
f 118//235 124//235 122//235
f 118//236 120//236 124//236
f 119//237 120//237 123//237
f 123//238 120//238 124//238
f 117//239 121//239 118//239
f 121//240 122//240 118//240
f 121//241 125//241 127//241
f 121//242 127//242 123//242
f 122//243 128//243 126//243
f 122//244 124//244 128//244
f 123//245 124//245 127//245
f 127//246 124//246 128//246
f 121//247 125//247 122//247
f 125//248 126//248 122//248
f 125//249 129//249 131//249
f 125//250 131//250 127//250
f 126//251 132//251 130//251
f 126//252 128//252 132//252
f 127//253 128//253 131//253
f 131//254 128//254 132//254
f 125//255 129//255 126//255
f 129//256 130//256 126//256
f 129//257 133//257 135//257
f 129//258 135//258 131//258
f 130//259 136//259 134//259
f 130//260 132//260 136//260
f 131//261 132//261 135//261
f 135//262 132//262 136//262
f 129//263 133//263 130//263
f 133//264 134//264 130//264
f 133//265 137//265 139//265
f 133//266 139//266 135//266
f 134//267 140//267 138//267
f 134//268 136//268 140//268
f 135//269 136//269 139//269
f 139//270 136//270 140//270
f 133//271 137//271 134//271
f 137//272 138//272 134//272
f 137//273 141//273 143//273
f 137//274 143//274 139//274
f 138//275 144//275 142//275
f 138//276 140//276 144//276
f 139//277 140//277 143//277
f 143//278 140//278 144//278
f 137//279 141//279 138//279
f 141//280 142//280 138//280
f 141//281 145//281 147//281
f 141//282 147//282 143//282
f 142//283 148//283 146//283
f 142//284 144//284 148//284
f 143//285 144//285 147//285
f 147//286 144//286 148//286
f 141//287 145//287 142//287
f 145//288 146//288 142//288
f 145//289 149//289 151//289
f 145//290 151//290 147//290
f 146//291 152//291 150//291
f 146//292 148//292 152//292
f 147//293 148//293 151//293
f 151//294 148//294 152//294
f 145//295 149//295 146//295
f 149//296 150//296 146//296
f 149//297 153//297 155//297
f 149//298 155//298 151//298
f 150//299 156//299 154//299
f 150//300 152//300 156//300
f 151//301 152//301 155//301
f 155//302 152//302 156//302
f 149//303 153//303 150//303
f 153//304 154//304 150//304
f 153//305 157//305 159//305
f 153//306 159//306 155//306
f 154//307 160//307 158//307
f 154//308 156//308 160//308
f 155//309 156//309 159//309
f 159//310 156//310 160//310
f 153//311 157//311 154//311
f 157//312 158//312 154//312
f 157//313 161//313 163//313
f 157//314 163//314 159//314
f 158//315 164//315 162//315
f 158//316 160//316 164//316
f 159//317 160//317 163//317
f 163//318 160//318 164//318
f 157//319 161//319 158//319
f 161//320 162//320 158//320
f 161//321 165//321 167//321
f 161//322 167//322 163//322
f 162//323 168//323 166//323
f 162//324 164//324 168//324
f 163//325 164//325 167//325
f 167//326 164//326 168//326
f 161//327 165//327 162//327
f 165//328 166//328 162//328
f 165//329 169//329 171//329
f 165//330 171//330 167//330
f 166//331 172//331 170//331
f 166//332 168//332 172//332
f 167//333 168//333 171//333
f 171//334 168//334 172//334
f 165//335 169//335 166//335
f 169//336 170//336 166//336
f 169//337 173//337 175//337
f 169//338 175//338 171//338
f 170//339 176//339 174//339
f 170//340 172//340 176//340
f 171//341 172//341 175//341
f 175//342 172//342 176//342
f 169//343 173//343 170//343
f 173//344 174//344 170//344
f 173//345 177//345 179//345
f 173//346 179//346 175//346
f 174//347 180//347 178//347
f 174//348 176//348 180//348
f 175//349 176//349 179//349
f 179//350 176//350 180//350
f 173//351 177//351 174//351
f 177//352 178//352 174//352
f 177//353 181//353 183//353
f 177//354 183//354 179//354
f 178//355 184//355 182//355
f 178//356 180//356 184//356
f 179//357 180//357 183//357
f 183//358 180//358 184//358
f 177//359 181//359 178//359
f 181//360 182//360 178//360
f 181//361 185//361 187//361
f 181//362 187//362 183//362
f 182//363 188//363 186//363
f 182//364 184//364 188//364
f 183//365 184//365 187//365
f 187//366 184//366 188//366
f 181//367 185//367 182//367
f 185//368 186//368 182//368
f 185//369 189//369 191//369
f 185//370 191//370 187//370
f 186//371 192//371 190//371
f 186//372 188//372 192//372
f 187//373 188//373 191//373
f 191//374 188//374 192//374
f 185//375 189//375 186//375
f 189//376 190//376 186//376
f 189//377 193//377 195//377
f 189//378 195//378 191//378
f 190//379 196//379 194//379
f 190//380 192//380 196//380
f 191//381 192//381 195//381
f 195//382 192//382 196//382
f 189//383 193//383 190//383
f 193//384 194//384 190//384
f 193//385 197//385 199//385
f 193//386 199//386 195//386
f 194//387 200//387 198//387
f 194//388 196//388 200//388
f 195//389 196//389 199//389
f 199//390 196//390 200//390
f 193//391 197//391 194//391
f 197//392 198//392 194//392
f 197//393 201//393 203//393
f 197//394 203//394 199//394
f 198//395 204//395 202//395
f 198//396 200//396 204//396
f 199//397 200//397 203//397
f 203//398 200//398 204//398
f 197//399 201//399 198//399
f 201//400 202//400 198//400
f 201//401 205//401 207//401
f 201//402 207//402 203//402
f 202//403 208//403 206//403
f 202//404 204//404 208//404
f 203//405 204//405 207//405
f 207//406 204//406 208//406
f 201//407 205//407 202//407
f 205//408 206//408 202//408
f 205//409 209//409 211//409
f 205//410 211//410 207//410
f 206//411 212//411 210//411
f 206//412 208//412 212//412
f 207//413 208//413 211//413
f 211//414 208//414 212//414
f 205//415 209//415 206//415
f 209//416 210//416 206//416
f 209//417 213//417 215//417
f 209//418 215//418 211//418
f 210//419 216//419 214//419
f 210//420 212//420 216//420
f 211//421 212//421 215//421
f 215//422 212//422 216//422
f 209//423 213//423 210//423
f 213//424 214//424 210//424
f 213//425 217//425 219//425
f 213//426 219//426 215//426
f 214//427 220//427 218//427
f 214//428 216//428 220//428
f 215//429 216//429 219//429
f 219//430 216//430 220//430
f 213//431 217//431 214//431
f 217//432 218//432 214//432
f 217//433 221//433 223//433
f 217//434 223//434 219//434
f 218//435 224//435 222//435
f 218//436 220//436 224//436
f 219//437 220//437 223//437
f 223//438 220//438 224//438
f 217//439 221//439 218//439
f 221//440 222//440 218//440
f 221//441 225//441 227//441
f 221//442 227//442 223//442
f 222//443 228//443 226//443
f 222//444 224//444 228//444
f 223//445 224//445 227//445
f 227//446 224//446 228//446
f 221//447 225//447 222//447
f 225//448 226//448 222//448
f 225//449 229//449 231//449
f 225//450 231//450 227//450
f 226//451 232//451 230//451
f 226//452 228//452 232//452
f 227//453 228//453 231//453
f 231//454 228//454 232//454
f 225//455 229//455 226//455
f 229//456 230//456 226//456
f 229//457 233//457 235//457
f 229//458 235//458 231//458
f 230//459 236//459 234//459
f 230//460 232//460 236//460
f 231//461 232//461 235//461
f 235//462 232//462 236//462
f 229//463 233//463 230//463
f 233//464 234//464 230//464
f 233//465 237//465 239//465
f 233//466 239//466 235//466
f 234//467 240//467 238//467
f 234//468 236//468 240//468
f 235//469 236//469 239//469
f 239//470 236//470 240//470
f 233//471 237//471 234//471
f 237//472 238//472 234//472
f 237//473 241//473 243//473
f 237//474 243//474 239//474
f 238//475 244//475 242//475
f 238//476 240//476 244//476
f 239//477 240//477 243//477
f 243//478 240//478 244//478
f 237//479 241//479 238//479
f 241//480 242//480 238//480
f 241//481 245//481 247//481
f 241//482 247//482 243//482
f 242//483 248//483 246//483
f 242//484 244//484 248//484
f 243//485 244//485 247//485
f 247//486 244//486 248//486
f 241//487 245//487 242//487
f 245//488 246//488 242//488
f 245//489 249//489 251//489
f 245//490 251//490 247//490
f 246//491 252//491 250//491
f 246//492 248//492 252//492
f 247//493 248//493 251//493
f 251//494 248//494 252//494
f 245//495 249//495 246//495
f 249//496 250//496 246//496
f 249//497 253//497 255//497
f 249//498 255//498 251//498
f 250//499 256//499 254//499
f 250//500 252//500 256//500
f 251//501 252//501 255//501
f 255//502 252//502 256//502
f 249//503 253//503 250//503
f 253//504 254//504 250//504
f 253//505 257//505 259//505
f 253//506 259//506 255//506
f 254//507 260//507 258//507
f 254//508 256//508 260//508
f 255//509 256//509 259//509
f 259//510 256//510 260//510
f 253//511 257//511 254//511
f 257//512 258//512 254//512
f 257//513 261//513 263//513
f 257//514 263//514 259//514
f 258//515 264//515 262//515
f 258//516 260//516 264//516
f 259//517 260//517 263//517
f 263//518 260//518 264//518
f 257//519 261//519 258//519
f 261//520 262//520 258//520
f 261//521 265//521 267//521
f 261//522 267//522 263//522
f 262//523 268//523 266//523
f 262//524 264//524 268//524
f 263//525 264//525 267//525
f 267//526 264//526 268//526
f 261//527 265//527 262//527
f 265//528 266//528 262//528
f 265//529 269//529 271//529
f 265//530 271//530 267//530
f 266//531 272//531 270//531
f 266//532 268//532 272//532
f 267//533 268//533 271//533
f 271//534 268//534 272//534
f 265//535 269//535 266//535
f 269//536 270//536 266//536
f 269//537 273//537 275//537
f 269//538 275//538 271//538
f 270//539 276//539 274//539
f 270//540 272//540 276//540
f 271//541 272//541 275//541
f 275//542 272//542 276//542
f 269//543 273//543 270//543
f 273//544 274//544 270//544
f 273//545 277//545 279//545
f 273//546 279//546 275//546
f 274//547 280//547 278//547
f 274//548 276//548 280//548
f 275//549 276//549 279//549
f 279//550 276//550 280//550
f 273//551 277//551 274//551
f 277//552 278//552 274//552
f 277//553 281//553 283//553
f 277//554 283//554 279//554
f 278//555 284//555 282//555
f 278//556 280//556 284//556
f 279//557 280//557 283//557
f 283//558 280//558 284//558
f 277//559 281//559 278//559
f 281//560 282//560 278//560
f 281//561 285//561 287//561
f 281//562 287//562 283//562
f 282//563 288//563 286//563
f 282//564 284//564 288//564
f 283//565 284//565 287//565
f 287//566 284//566 288//566
f 281//567 285//567 282//567
f 285//568 286//568 282//568
f 285//569 289//569 291//569
f 285//570 291//570 287//570
f 286//571 292//571 290//571
f 286//572 288//572 292//572
f 287//573 288//573 291//573
f 291//574 288//574 292//574
f 285//575 289//575 286//575
f 289//576 290//576 286//576
f 289//577 293//577 295//577
f 289//578 295//578 291//578
f 290//579 296//579 294//579
f 290//580 292//580 296//580
f 291//581 292//581 295//581
f 295//582 292//582 296//582
f 289//583 293//583 290//583
f 293//584 294//584 290//584
f 293//585 297//585 299//585
f 293//586 299//586 295//586
f 294//587 300//587 298//587
f 294//588 296//588 300//588
f 295//589 296//589 299//589
f 299//590 296//590 300//590
f 293//591 297//591 294//591
f 297//592 298//592 294//592
f 297//593 301//593 303//593
f 297//594 303//594 299//594
f 298//595 304//595 302//595
f 298//596 300//596 304//596
f 299//597 300//597 303//597
f 303//598 300//598 304//598
f 297//599 301//599 298//599
f 301//600 302//600 298//600
f 301//601 305//601 307//601
f 301//602 307//602 303//602
f 302//603 308//603 306//603
f 302//604 304//604 308//604
f 303//605 304//605 307//605
f 307//606 304//606 308//606
f 301//607 305//607 302//607
f 305//608 306//608 302//608
f 305//609 309//609 311//609
f 305//610 311//610 307//610
f 306//611 312//611 310//611
f 306//612 308//612 312//612
f 307//613 308//613 311//613
f 311//614 308//614 312//614
f 305//615 309//615 306//615
f 309//616 310//616 306//616
f 309//617 313//617 315//617
f 309//618 315//618 311//618
f 310//619 316//619 314//619
f 310//620 312//620 316//620
f 311//621 312//621 315//621
f 315//622 312//622 316//622
f 309//623 313//623 310//623
f 313//624 314//624 310//624
f 313//625 317//625 319//625
f 313//626 319//626 315//626
f 314//627 320//627 318//627
f 314//628 316//628 320//628
f 315//629 316//629 319//629
f 319//630 316//630 320//630
f 313//631 317//631 314//631
f 317//632 318//632 314//632
f 317//633 321//633 323//633
f 317//634 323//634 319//634
f 318//635 324//635 322//635
f 318//636 320//636 324//636
f 319//637 320//637 323//637
f 323//638 320//638 324//638
f 317//639 321//639 318//639
f 321//640 322//640 318//640
f 321//641 325//641 327//641
f 321//642 327//642 323//642
f 322//643 328//643 326//643
f 322//644 324//644 328//644
f 323//645 324//645 327//645
f 327//646 324//646 328//646
f 321//647 325//647 322//647
f 325//648 326//648 322//648
f 325//649 329//649 331//649
f 325//650 331//650 327//650
f 326//651 332//651 330//651
f 326//652 328//652 332//652
f 327//653 328//653 331//653
f 331//654 328//654 332//654
f 325//655 329//655 326//655
f 329//656 330//656 326//656
f 329//657 333//657 335//657
f 329//658 335//658 331//658
f 330//659 336//659 334//659
f 330//660 332//660 336//660
f 331//661 332//661 335//661
f 335//662 332//662 336//662
f 329//663 333//663 330//663
f 333//664 334//664 330//664
f 333//665 337//665 339//665
f 333//666 339//666 335//666
f 334//667 340//667 338//667
f 334//668 336//668 340//668
f 335//669 336//669 339//669
f 339//670 336//670 340//670
f 333//671 337//671 334//671
f 337//672 338//672 334//672
f 337//673 341//673 343//673
f 337//674 343//674 339//674
f 338//675 344//675 342//675
f 338//676 340//676 344//676
f 339//677 340//677 343//677
f 343//678 340//678 344//678
f 337//679 341//679 338//679
f 341//680 342//680 338//680
f 341//681 345//681 347//681
f 341//682 347//682 343//682
f 342//683 348//683 346//683
f 342//684 344//684 348//684
f 343//685 344//685 347//685
f 347//686 344//686 348//686
f 341//687 345//687 342//687
f 345//688 346//688 342//688
f 345//689 349//689 351//689
f 345//690 351//690 347//690
f 346//691 352//691 350//691
f 346//692 348//692 352//692
f 347//693 348//693 351//693
f 351//694 348//694 352//694
f 345//695 349//695 346//695
f 349//696 350//696 346//696
f 349//697 353//697 355//697
f 349//698 355//698 351//698
f 350//699 356//699 354//699
f 350//700 352//700 356//700
f 351//701 352//701 355//701
f 355//702 352//702 356//702
f 349//703 353//703 350//703
f 353//704 354//704 350//704
f 353//705 357//705 359//705
f 353//706 359//706 355//706
f 354//707 360//707 358//707
f 354//708 356//708 360//708
f 355//709 356//709 359//709
f 359//710 356//710 360//710
f 353//711 357//711 354//711
f 357//712 358//712 354//712
f 357//713 361//713 363//713
f 357//714 363//714 359//714
f 358//715 364//715 362//715
f 358//716 360//716 364//716
f 359//717 360//717 363//717
f 363//718 360//718 364//718
f 357//719 361//719 358//719
f 361//720 362//720 358//720
f 361//721 365//721 367//721
f 361//722 367//722 363//722
f 362//723 368//723 366//723
f 362//724 364//724 368//724
f 363//725 364//725 367//725
f 367//726 364//726 368//726
f 361//727 365//727 362//727
f 365//728 366//728 362//728
f 365//729 369//729 371//729
f 365//730 371//730 367//730
f 366//731 372//731 370//731
f 366//732 368//732 372//732
f 367//733 368//733 371//733
f 371//734 368//734 372//734
f 365//735 369//735 366//735
f 369//736 370//736 366//736
f 369//737 373//737 375//737
f 369//738 375//738 371//738
f 370//739 376//739 374//739
f 370//740 372//740 376//740
f 371//741 372//741 375//741
f 375//742 372//742 376//742
f 369//743 373//743 370//743
f 373//744 374//744 370//744
f 373//745 377//745 379//745
f 373//746 379//746 375//746
f 374//747 380//747 378//747
f 374//748 376//748 380//748
f 375//749 376//749 379//749
f 379//750 376//750 380//750
f 373//751 377//751 374//751
f 377//752 378//752 374//752
f 377//753 381//753 383//753
f 377//754 383//754 379//754
f 378//755 384//755 382//755
f 378//756 380//756 384//756
f 379//757 380//757 383//757
f 383//758 380//758 384//758
f 377//759 381//759 378//759
f 381//760 382//760 378//760
f 381//761 385//761 387//761
f 381//762 387//762 383//762
f 382//763 388//763 386//763
f 382//764 384//764 388//764
f 383//765 384//765 387//765
f 387//766 384//766 388//766
f 381//767 385//767 382//767
f 385//768 386//768 382//768
f 385//769 389//769 391//769
f 385//770 391//770 387//770
f 386//771 392//771 390//771
f 386//772 388//772 392//772
f 387//773 388//773 391//773
f 391//774 388//774 392//774
f 385//775 389//775 386//775
f 389//776 390//776 386//776
f 389//777 393//777 395//777
f 389//778 395//778 391//778
f 390//779 396//779 394//779
f 390//780 392//780 396//780
f 391//781 392//781 395//781
f 395//782 392//782 396//782
f 389//783 393//783 390//783
f 393//784 394//784 390//784
f 393//785 397//785 399//785
f 393//786 399//786 395//786
f 394//787 400//787 398//787
f 394//788 396//788 400//788
f 395//789 396//789 399//789
f 399//790 396//790 400//790
f 393//791 397//791 394//791
f 397//792 398//792 394//792
f 397//793 401//793 403//793
f 397//794 403//794 399//794
f 398//795 404//795 402//795
f 398//796 400//796 404//796
f 399//797 400//797 403//797
f 403//798 400//798 404//798
f 397//799 401//799 398//799
f 401//800 402//800 398//800
f 401//801 405//801 407//801
f 401//802 407//802 403//802
f 402//803 408//803 406//803
f 402//804 404//804 408//804
f 403//805 404//805 407//805
f 407//806 404//806 408//806
f 401//807 405//807 402//807
f 405//808 406//808 402//808
f 405//809 409//809 411//809
f 405//810 411//810 407//810
f 406//811 412//811 410//811
f 406//812 408//812 412//812
f 407//813 408//813 411//813
f 411//814 408//814 412//814
f 405//815 409//815 406//815
f 409//816 410//816 406//816
f 409//817 413//817 415//817
f 409//818 415//818 411//818
f 410//819 416//819 414//819
f 410//820 412//820 416//820
f 411//821 412//821 415//821
f 415//822 412//822 416//822
f 409//823 413//823 410//823
f 413//824 414//824 410//824
f 413//825 417//825 419//825
f 413//826 419//826 415//826
f 414//827 420//827 418//827
f 414//828 416//828 420//828
f 415//829 416//829 419//829
f 419//830 416//830 420//830
f 413//831 417//831 414//831
f 417//832 418//832 414//832
f 417//833 421//833 423//833
f 417//834 423//834 419//834
f 418//835 424//835 422//835
f 418//836 420//836 424//836
f 419//837 420//837 423//837
f 423//838 420//838 424//838
f 417//839 421//839 418//839
f 421//840 422//840 418//840
f 421//841 425//841 427//841
f 421//842 427//842 423//842
f 422//843 428//843 426//843
f 422//844 424//844 428//844
f 423//845 424//845 427//845
f 427//846 424//846 428//846
f 421//847 425//847 422//847
f 425//848 426//848 422//848
f 425//849 429//849 431//849
f 425//850 431//850 427//850
f 426//851 432//851 430//851
f 426//852 428//852 432//852
f 427//853 428//853 431//853
f 431//854 428//854 432//854
f 425//855 429//855 426//855
f 429//856 430//856 426//856
f 429//857 433//857 435//857
f 429//858 435//858 431//858
f 430//859 436//859 434//859
f 430//860 432//860 436//860
f 431//861 432//861 435//861
f 435//862 432//862 436//862
f 429//863 433//863 430//863
f 433//864 434//864 430//864
f 433//865 437//865 439//865
f 433//866 439//866 435//866
f 434//867 440//867 438//867
f 434//868 436//868 440//868
f 435//869 436//869 439//869
f 439//870 436//870 440//870
f 433//871 437//871 434//871
f 437//872 438//872 434//872
f 437//873 441//873 443//873
f 437//874 443//874 439//874
f 438//875 444//875 442//875
f 438//876 440//876 444//876
f 439//877 440//877 443//877
f 443//878 440//878 444//878
f 437//879 441//879 438//879
f 441//880 442//880 438//880
f 441//881 445//881 447//881
f 441//882 447//882 443//882
f 442//883 448//883 446//883
f 442//884 444//884 448//884
f 443//885 444//885 447//885
f 447//886 444//886 448//886
f 441//887 445//887 442//887
f 445//888 446//888 442//888
f 445//889 449//889 451//889
f 445//890 451//890 447//890
f 446//891 452//891 450//891
f 446//892 448//892 452//892
f 447//893 448//893 451//893
f 451//894 448//894 452//894
f 445//895 449//895 446//895
f 449//896 450//896 446//896
f 449//897 453//897 455//897
f 449//898 455//898 451//898
f 450//899 456//899 454//899
f 450//900 452//900 456//900
f 451//901 452//901 455//901
f 455//902 452//902 456//902
f 449//903 453//903 450//903
f 453//904 454//904 450//904
f 453//905 457//905 459//905
f 453//906 459//906 455//906
f 454//907 460//907 458//907
f 454//908 456//908 460//908
f 455//909 456//909 459//909
f 459//910 456//910 460//910
f 453//911 457//911 454//911
f 457//912 458//912 454//912
f 457//913 461//913 463//913
f 457//914 463//914 459//914
f 458//915 464//915 462//915
f 458//916 460//916 464//916
f 459//917 460//917 463//917
f 463//918 460//918 464//918
f 457//919 461//919 458//919
f 461//920 462//920 458//920
f 461//921 465//921 467//921
f 461//922 467//922 463//922
f 462//923 468//923 466//923
f 462//924 464//924 468//924
f 463//925 464//925 467//925
f 467//926 464//926 468//926
f 461//927 465//927 462//927
f 465//928 466//928 462//928
f 465//929 469//929 471//929
f 465//930 471//930 467//930
f 466//931 472//931 470//931
f 466//932 468//932 472//932
f 467//933 468//933 471//933
f 471//934 468//934 472//934
f 465//935 469//935 466//935
f 469//936 470//936 466//936
f 469//937 473//937 475//937
f 469//938 475//938 471//938
f 470//939 476//939 474//939
f 470//940 472//940 476//940
f 471//941 472//941 475//941
f 475//942 472//942 476//942
f 469//943 473//943 470//943
f 473//944 474//944 470//944
f 473//945 477//945 479//945
f 473//946 479//946 475//946
f 474//947 480//947 478//947
f 474//948 476//948 480//948
f 475//949 476//949 479//949
f 479//950 476//950 480//950
f 473//951 477//951 474//951
f 477//952 478//952 474//952
f 477//953 1//953 3//953
f 477//954 3//954 479//954
f 478//955 4//955 2//955
f 478//956 480//956 4//956
f 479//957 480//957 3//957
f 3//958 480//958 4//958
f 477//959 1//959 478//959
f 1//960 2//960 478//960
